<?xml version="1.0" encoding="UTF-8"?>
<svg id="Camada_2" data-name="Camada 2" xmlns="http://www.w3.org/2000/svg" viewBox="0 0 77.2 59.9">
  <defs>
    <style>
      .cls-1 {
        fill: #efeae6;
        stroke: #34302d;
        stroke-miterlimit: 10;
      }

      .cls-2 {
        fill: #34302d;
      }

      .cls-3 {
        fill: #667e80;
      }
    </style>
  </defs>
  <g id="Camada_1-2" data-name="Camada 1">
    <g>
      <path class="cls-3" d="M76.33,57.82c-.28.41-1.06.66-1.56.32-.13-.07-.26-.21-.33-.25-.31-.18-.68-.32-1.04-.45-.8-.26-1.56-.51-2.43-.55-3.56-.29-5.11,2.96-8.9,2.48-3.32-.35-4.39-3.07-8.37-2.41-2.81.5-4.05,2.73-7.3,2.42-3.44-.24-4.63-3.19-8.71-2.4-1.63.26-2.84,1.39-4.35,1.99-.72.28-1.49.41-2.26.42-1.61.05-3.11-.61-4.43-1.5-1.9-1.1-4.13-1.43-6.26-.47-1,.44-1.79,1.09-2.82,1.5-1.39.57-2.99.63-4.43.18-1.71-.54-2.88-1.8-4.65-2.11-1.11-.22-2.29-.13-3.36.25-1.33.63-3.1,1.1-4.31-.03-.42-.42-.16-.69.08-1.14.54-1.03.89-2.15,1.34-3.22.68-1.48,1.27-2.75,1.97-4.57,1.36-3.44,2.77-7.27,4.27-10.81,2.92-7.54,11.08-21.49,12.66-23.76,1.68-2.6,3.55-5.96,4.79-9.07.15-.62.19-1.19.5-1.73.41-.82,1.33-1.19,2.25-1.24,5.89-.56,11.82-.98,17.72-1.49,2.11-.08,4.49-.97,4.68,2.03.1,1.04.2,2.49.86,3.24.45.58.98,1.06,1.5,1.59.82.83,1.68,1.99,2.26,2.93,5.54,11.6,9.11,18.87,12.54,25.46,1.32,2.57,3.15,6.3,4.1,9.41.33,1.29,2.62,7.88,3.64,10.23.14.43.37.79.59,1.18.22.49.05,1.15-.27,1.55l-.02.03Z"/>
      <path class="cls-2" d="M53.18,6.77c-4.93,1.88-10.77,2.86-16.99,2.86-4.22,0-8.23-.45-11.89-1.33.25-.5.52-1.03.78-1.59.26-.38.39-.76.57-1.24.13-.35.35-.69.39-1.07.01-.09.03-.18.04-.27s.03-.17.05-.26c.01-.07.03-.13.05-.2.01-.05.03-.09.04-.14.03-.11.07-.22.11-.33.01-.03.02-.06.04-.09,0-.01,0-.02.01-.03h0c5.77-.55,11.56-.95,17.36-1.46,1.74-.14,3.52-.29,5.27-.44.59-.04,1.22-.12,1.85-.15.02.05.03.09.05.14.01.04.02.07.03.11,0,.02.01.04.02.07.05.18.09.37.11.56,0,.02,0,.04,0,.05,0,.08.02.16.03.24,0,0,0,0,0,.01.03.3.06.6.08.88.01.1.02.2.04.3.12,1.01.39,1.63.74,2.06.24.3.5.58.76.84.05.05.1.11.15.16.1.1.2.2.31.3Z"/>
      <path class="cls-1" d="M76.28,57.84c-.09.1-.51.54-1.07.49-.4-.04-.67-.32-.78-.44,0,0-.63-.38-1.73-.67h0c-.71-.18-1.61-.32-2.66-.3-.26,0-.49.02-.69.05-.59.08-.98.24-1.45.51,0,0,0,0,0,0-.52.29-1.13.7-2.21,1.24-.83.41-1.75.64-2.67.67-.05,0-.1,0-.15,0-.02,0-.04,0-.06,0-.91,0-1.83-.19-2.67-.57-.64-.28-1.22-.65-1.82-.98-.03-.01-.05-.03-.08-.04-.37-.2-.75-.39-1.16-.53-1.49-.54-3.21-.51-4.67.09-.98.44-1.76.93-2.54,1.31,0,0-.01,0-.02,0-.34.16-.67.31-1.03.43-.03,0-.05.02-.08.02-.59.18-1.23.28-2,.26-.05,0-.09,0-.14,0-.13,0-.28-.02-.42-.03-.04,0-.09,0-.13-.01-.22-.02-.44-.06-.65-.12-.68-.17-1.3-.46-1.92-.79-1.26-.67-2.48-1.46-4-1.53-2.15-.16-3.32.61-4.78,1.4,0,0-.01,0-.02.01-.44.24-.91.48-1.45.7-.61.22-1.25.34-1.9.37-.04,0-.08,0-.12,0-.05,0-.1,0-.16,0-.09,0-.18,0-.27,0-.06,0-.12,0-.19-.01-.02,0-.04,0-.05,0-.72-.05-1.44-.22-2.1-.5-1.01-.42-1.94-1.16-2.98-1.53-1.54-.6-3.19-.63-4.75-.02-.35.13-.69.3-1,.47-.01,0-.02.01-.03.02-.7.38-1.36.81-2.13,1.12-.72.29-1.5.44-2.28.46-.04,0-.08,0-.12,0-.7,0-1.39-.1-2.05-.32-3.24-1.25-3.73-2.85-7.66-1.73-.38.08-.75.19-1.12.28-.75.19-1.48.33-2.27.17-.11-.02-.22-.05-.33-.09,0,0,0,0,0,0-.09-.03-.18-.07-.26-.12-.02-.01-.04-.02-.06-.03-.34-.19-.63-.47-.77-.78,0,0,0,0,0-.01-.05-.11-.08-.23-.08-.35-.01-.64.37-1.19.71-1.87.29-.55.58-1.02.97-1.4.27-.27.59-.51.99-.71,1.02-.63,2.11-1.18,3.32-1.3,3.08-.37,4.25,1.4,6.84,2.21,1.45.41,3.03.29,4.41-.32,1.03-.45,1.88-1.11,2.97-1.52,2.21-.9,4.59-.31,6.53.95,1.79,1.14,4.1,1.48,6.09.7,1.17-.45,2.16-1.25,3.33-1.68,1.12-.42,2.39-.52,3.56-.28,1.57.29,2.83,1.35,4.29,1.94,1.5.58,3.23.59,4.73,0,1.07-.42,2-1.13,3.07-1.57.75-.31,1.54-.48,2.35-.5.87-.02,1.73.13,2.54.45,1.16.45,2.07,1.19,3.22,1.63,1.4.54,2.97.59,4.4.1.97-.33,1.86-.9,2.73-1.36,1.87-1.09,4.4-1.05,6.27.03.58.33.96.64,1.09.77.06.05.12.11.17.17.94.96,1.51,2.31,1.58,3.42.04.65-.09,1.21-.41,1.57Z"/>
    </g>
  </g>
</svg>