<svg width="51" height="63" viewBox="0 0 51 63" fill="none" xmlns="http://www.w3.org/2000/svg">
<path d="M37.7411 60.0259C33.9643 59.8319 31.0214 57.3611 31.168 54.5071C31.3146 51.6532 34.4951 49.4968 38.2719 49.6908C42.0486 49.8848 44.9915 52.3556 44.8449 55.2095C44.6984 58.0635 41.5179 60.2199 37.7411 60.0259Z" fill="#473F3A" stroke="#473F3A" stroke-miterlimit="10"/>
<path d="M24.8694 61.6488C21.0926 61.4549 18.1498 58.984 18.2963 56.1301C18.4429 53.2761 21.6234 51.1197 25.4002 51.3137C29.177 51.5077 32.1198 53.9785 31.9733 56.8325C31.8267 59.6864 28.6462 61.8428 24.8694 61.6488Z" fill="#473F3A" stroke="#473F3A" stroke-miterlimit="10"/>
<path d="M11.9118 59.3796C8.13506 59.1856 5.19219 56.7147 5.33876 53.8608C5.48534 51.0068 8.66585 48.8505 12.4426 49.0444C16.2194 49.2384 19.1622 51.7092 19.0157 54.5632C18.8691 57.4171 15.6886 59.5735 11.9118 59.3796Z" fill="#473F3A" stroke="#473F3A" stroke-miterlimit="10"/>
<path d="M30.551 4.78896L49.4693 47.5877C50.0896 48.9915 49.3306 50.6237 47.8615 51.0563C41.7159 52.86 33.5463 54.476 23.9157 54.3291C15.3707 54.1985 8.05801 52.7212 2.36947 51.0563C0.892243 50.6237 0.133242 48.9996 0.753514 47.5877L19.6718 4.78896C21.908 -0.262987 28.3066 -0.262987 30.5429 4.78896H30.551Z" fill="#473F3A" stroke="#473F3A" stroke-miterlimit="10"/>
<path d="M1.98588 44.8128C2.1083 44.8699 2.23889 44.9189 2.37764 44.9597C8.05802 46.6246 15.3789 48.1019 23.9239 48.2324C33.5544 48.3794 41.7241 46.7552 47.8696 44.9597C48.0002 44.9189 48.1308 44.8699 48.2532 44.8128L30.5592 4.78896C28.3229 -0.262987 21.9243 -0.262987 19.6881 4.78896L1.99405 44.8128H1.98588Z" fill="#473F3A"/>
<path d="M48.2451 44.8128L30.551 4.78894" stroke="#473F3A" stroke-miterlimit="10" stroke-linecap="round"/>
</svg>
