<svg width="447" height="447" viewBox="0 0 447 447" fill="none" xmlns="http://www.w3.org/2000/svg">
<g clip-path="url(#clip0_1_134)">
<path d="M237.24 329.06H209.55V356.75H237.24V329.06Z" fill="#E6E6E6"/>
<path d="M103.13 317.78C91.2199 308.84 87.6599 293.48 95.1699 283.48C102.68 273.48 118.42 272.62 130.33 281.57C142.23 290.51 145.8 305.87 138.29 315.87C130.78 325.87 115.04 326.73 103.13 317.78Z" fill="#FF896D"/>
<path d="M134.07 333.31C122.16 324.37 118.6 309.01 126.11 299.01C133.62 289.01 149.36 288.15 161.27 297.1C173.17 306.04 176.74 321.4 169.23 331.4C161.72 341.4 145.98 342.26 134.07 333.31Z" fill="#FF896D"/>
<path d="M100.77 249.81C100.77 250.84 100.71 251.85 100.57 252.84C100.45 253.88 100.26 254.9 99.9999 255.89C97.2999 266.4 87.7699 274.16 76.4199 274.16C74.1399 274.16 71.9399 273.85 69.8599 273.25C59.8299 270.47 52.4199 261.41 52.0899 250.57C52.0699 250.32 52.0699 250.07 52.0699 249.81C52.0699 247.33 52.4399 244.94 53.1299 242.68C54.8099 237.18 58.3899 232.5 63.0999 229.43C66.9299 226.92 71.4999 225.46 76.4199 225.46C83.1499 225.46 89.2199 228.19 93.6299 232.58C97.7999 236.75 100.47 242.43 100.74 248.73C100.76 249.09 100.77 249.45 100.77 249.81Z" fill="#FF896D"/>
<path d="M118.52 272.18C118.52 285.63 107.62 296.53 94.1699 296.53C80.7199 296.53 69.8199 285.63 69.8199 272.18C69.8199 258.73 80.7199 247.83 94.1699 247.83C107.62 247.83 118.52 258.73 118.52 272.18Z" fill="#FF896D"/>
<path d="M386.36 268.7C386.36 282.15 375.46 293.05 362.01 293.05C348.56 293.05 337.66 282.15 337.66 268.7C337.66 255.25 348.56 244.35 362.01 244.35C375.46 244.35 386.36 255.25 386.36 268.7Z" fill="#FF896D"/>
<path d="M366.29 294.93C366.29 308.38 355.39 319.28 341.94 319.28C328.49 319.28 317.59 308.38 317.59 294.93C317.59 281.48 328.49 270.58 341.94 270.58C355.39 270.58 366.29 281.48 366.29 294.93Z" fill="#FF896D"/>
<path d="M348.04 309.14C348.04 322.59 337.14 333.49 323.69 333.49C310.24 333.49 299.34 322.59 299.34 309.14C299.34 295.69 310.24 284.79 323.69 284.79C337.14 284.79 348.04 295.69 348.04 309.14Z" fill="#FF896D"/>
<path d="M412.64 235.97C412.64 239.96 411.98 243.79 410.76 247.37C406.97 258.51 397.78 267.14 386.31 270.16C383.44 270.92 380.42 271.32 377.3 271.32C368.11 271.32 359.75 267.83 353.47 262.08C351.28 260.08 349.34 257.81 347.71 255.31C346.81 253.94 346 252.5 345.3 251C343.15 246.44 341.95 241.34 341.95 235.97C341.95 234.08 342.1 232.22 342.39 230.41C342.63 228.88 342.97 227.38 343.4 225.92C346.3 216.13 353.32 208.11 362.46 203.89C363.95 203.2 365.49 202.61 367.08 202.13C369.54 201.39 372.11 200.91 374.77 200.72C375.5 200.67 376.24 200.64 376.99 200.63H377.3C388.93 200.63 399.24 206.24 405.68 214.9C409.22 219.66 411.58 225.33 412.36 231.51C412.55 232.97 412.64 234.46 412.64 235.97Z" fill="#FF896D"/>
<path d="M401.64 244.35C401.64 257.8 390.74 268.7 377.29 268.7C363.84 268.7 352.94 257.8 352.94 244.35C352.94 230.9 363.84 220 377.29 220C390.74 220 401.64 230.9 401.64 244.35Z" fill="#FF896D"/>
<path d="M362.91 225.55C362.91 346.07 303.43 346.07 230.06 346.07C156.69 346.07 97.21 327.61 97.21 225.55C97.21 158.99 122.78 109.41 230.06 109.41C345.08 109.41 362.91 158.98 362.91 225.55Z" fill="#FFE5D1"/>
<path d="M362.89 230.05C361.42 346.07 302.52 346.07 230.06 346.07C157.6 346.07 100.22 328.53 97.33 233.11C133.19 240.65 176.61 245.07 223.4 245.07C276.19 245.07 324.7 239.45 362.89 230.05Z" fill="#FFE9D9"/>
<path d="M119.13 193.69C117.22 191.9 116.27 189.54 116.47 187.19C116.47 187.11 116.48 187.03 116.49 186.95C116.5 186.83 116.52 186.71 116.54 186.58C116.54 186.55 116.54 186.52 116.56 186.48C116.58 186.38 116.6 186.28 116.62 186.19C116.7 185.82 116.81 185.46 116.95 185.1C116.99 185 117.03 184.9 117.08 184.8C117.34 184.18 117.7 183.57 118.15 182.99C118.31 182.79 118.47 182.59 118.65 182.4H118.66C119.64 181.33 120.61 180.26 121.55 179.19C122.51 178.13 123.44 177.07 124.36 176.01C125.26 174.97 126.15 173.94 127.02 172.92C133.31 165.5 138.78 158.36 143.51 151.55C145.19 149.13 146.78 146.76 148.28 144.43C150.28 141.36 152.11 138.38 153.81 135.46C146.48 136.2 139.33 137.05 132.36 138.01C138.94 137.26 145.65 136.59 152.5 136.01C150.66 139.25 148.57 142.64 146.23 146.16C144.19 149.25 141.94 152.42 139.43 155.7C137.93 157.68 136.34 159.7 134.66 161.76L126.95 139.04C127.06 138.94 127.17 138.83 127.28 138.73C127.34 138.68 127.39 138.63 127.45 138.58C136.54 130.32 148.08 123.58 162.61 118.68C180.34 112.68 202.51 109.41 230.07 109.41C253.72 109.41 273.26 111.51 289.38 115.41C312.12 120.93 328.06 130.05 339.12 141.98C331.97 140.65 324.57 139.43 316.93 138.36L312.31 149.63C313.35 151.02 314.39 152.39 315.42 153.74C319.1 158.55 322.75 163.1 326.27 167.36C330.86 172.91 335.22 177.97 339.2 182.43C343.35 187.09 341.13 193.69 334.63 195.94C331.74 196.94 328.65 197.98 325.35 199.01C321.5 200.21 317.37 201.42 312.99 202.59C311.58 202.97 310.15 203.34 308.69 203.71C306.84 204.18 304.95 204.64 303.02 205.09C301.98 205.33 300.93 205.57 299.87 205.81C298.82 206.05 297.76 206.28 296.69 206.5C296.05 206.64 295.4 206.77 294.74 206.91C293.42 207.19 292.08 207.46 290.72 207.72C290.07 207.84 289.41 207.97 288.75 208.09C288.07 208.22 287.39 208.35 286.71 208.47C285.71 208.65 284.7 208.83 283.68 209C282.6 209.19 281.52 209.37 280.43 209.54C262.85 212.36 242.89 214.09 220.99 213.57C206.92 213.24 193.77 212.03 181.66 210.27C180.83 210.15 180 210.03 179.18 209.9C178.62 209.82 178.06 209.73 177.5 209.64C177.03 209.57 176.57 209.49 176.1 209.41C175.53 209.32 174.97 209.23 174.41 209.13C173.78 209.03 173.15 208.92 172.52 208.81C171.46 208.62 170.41 208.43 169.37 208.24C166.56 207.72 163.82 207.18 161.14 206.61C160.35 206.44 159.57 206.27 158.8 206.1C154.76 205.22 150.89 204.29 147.18 203.32C146.04 203.03 144.91 202.73 143.8 202.43C142.69 202.13 141.6 201.82 140.52 201.52C139.45 201.21 138.38 200.91 137.34 200.6C136.7 200.41 136.06 200.22 135.43 200.03C135.03 199.92 134.64 199.8 134.25 199.68C133.75 199.53 133.24 199.37 132.74 199.21C132.25 199.06 131.75 198.91 131.26 198.75C130.77 198.59 130.28 198.43 129.8 198.28C129.32 198.12 128.84 197.97 128.37 197.82C127.42 197.52 126.49 197.2 125.58 196.9C125.16 196.75 124.75 196.61 124.33 196.47C123.92 196.33 123.51 196.19 123.11 196.05C121.78 195.59 120.62 194.94 119.67 194.17C119.48 194.01 119.3 193.86 119.13 193.69Z" fill="#FFE5D1"/>
<path d="M278.66 240.45C278.66 257.97 267.78 272.17 254.36 272.17C251.98 272.17 249.67 271.72 247.5 270.89C247.14 270.75 247.14 270.26 247.48 270.09C256.61 265.54 263.11 253.98 263.11 240.45C263.11 226.92 256.62 215.37 247.48 210.82C247.14 210.65 247.14 210.16 247.5 210.02C249.67 209.19 251.98 208.74 254.36 208.74C267.78 208.74 278.66 222.94 278.66 240.46V240.45Z" stroke="#472620" stroke-width="3" stroke-miterlimit="10"/>
<path d="M204 205.47C199.01 215.33 193.55 228.33 189.64 244.14C186.1 258.46 184.76 271.26 184.4 281.6C184.33 281.88 183.79 284.12 185.3 286.13C186.23 287.37 187.69 288.21 189.4 288.27C201.27 288.66 213.13 289.05 225 289.43" stroke="#472620" stroke-width="3" stroke-miterlimit="10" stroke-linecap="round"/>
<path d="M286.59 294.15C286.59 300.43 279.9 305.52 271.65 305.52C263.4 305.52 256.72 300.43 256.72 294.15C256.72 287.87 263.41 282.78 271.65 282.78C279.89 282.78 286.59 287.87 286.59 294.15Z" fill="#A47684"/>
<path d="M162.61 294.15C162.61 300.43 155.92 305.52 147.67 305.52C139.42 305.52 132.74 300.43 132.74 294.15C132.74 287.87 139.43 282.78 147.67 282.78C155.91 282.78 162.61 287.87 162.61 294.15Z" fill="#A47684"/>
<path d="M179.21 318.86L258.34 315.93" stroke="#472620" stroke-width="3" stroke-miterlimit="10" stroke-linecap="round"/>
<path d="M106.67 208.96C106.67 222.41 95.77 233.31 82.32 233.31C68.87 233.31 57.97 222.41 57.97 208.96C57.97 195.51 68.87 184.61 82.32 184.61C95.77 184.61 106.67 195.51 106.67 208.96Z" fill="#B3B3B3"/>
<path d="M313.43 327.53C305.2 330.42 294.33 333.43 281.09 335.15C268.93 336.73 258.1 336.79 249.49 336.33C240.15 335.83 231.02 338.59 225.65 344.01C225.37 344.29 225.1 344.58 224.84 344.87C224.73 344.99 224.62 345.12 224.52 345.24C223.52 346.42 221.12 346.26 220.3 344.97C220.3 344.96 220.28 344.94 220.28 344.93C220.08 344.63 219.88 344.33 219.67 344.04C215.62 338.46 208.09 335.37 200.06 335.49C192.66 335.59 183.41 335.1 173.18 333.05C162.04 330.82 153.05 327.41 146.3 324.22C144.3 323.27 141.87 325.06 142.72 326.86C145.74 333.23 151.34 341.87 161.78 349.18C185.78 365.99 215.94 362.19 221.52 361.38C228.03 362.48 262.63 367.67 292.48 351.92C305.49 345.06 313.03 336.62 317.29 330.35C318.49 328.59 315.87 326.66 313.43 327.53Z" fill="#A38784"/>
<path d="M344.55 259.13C348.28 254.4 353.53 251.62 359.13 252.05C369.22 252.82 376.62 263.71 375.66 276.37C374.7 289.04 365.74 298.68 355.65 297.92C353.68 297.77 351.81 297.23 350.08 296.37L344.55 259.13Z" fill="#FFE5D1"/>
<path d="M351.18 266.99C356.1 264.58 362.03 266.61 364.45 271.52C366.87 276.43 364.83 282.37 359.92 284.79" stroke="#472620" stroke-width="3" stroke-miterlimit="10" stroke-linecap="round"/>
<path d="M418.93 214.88C418.93 217.17 418.62 219.39 418.02 221.48C418.01 221.5 418.01 221.52 418 221.54C416.94 225.32 414.98 228.72 412.36 231.51C409.31 234.78 405.36 237.2 400.91 238.39C398.89 238.94 396.77 239.23 394.58 239.23C390.16 239.23 386.03 238.06 382.46 236C377.48 233.14 373.61 228.56 371.65 223.08C371.38 222.35 371.15 221.6 370.97 220.84C370.9 220.59 370.84 220.34 370.79 220.08C370.42 218.41 370.23 216.67 370.23 214.88C370.23 213.96 370.28 213.04 370.39 212.15C370.85 207.91 372.41 204.01 374.77 200.72C375.37 199.88 376.02 199.08 376.73 198.32C376.85 198.19 376.97 198.06 377.1 197.93C377.37 197.65 377.65 197.38 377.93 197.12C382.07 193.23 387.55 190.78 393.62 190.55C393.94 190.54 394.25 190.53 394.57 190.53C402.49 190.53 409.52 194.31 413.97 200.16C415.83 202.61 417.24 205.42 418.06 208.47C418.62 210.52 418.92 212.66 418.92 214.88H418.93Z" fill="#FF896D"/>
<path d="M94.6999 225.46C94.6999 227.94 94.3299 230.33 93.6299 232.58C92.4999 236.31 90.4999 239.65 87.8599 242.38C84.4599 245.9 80.0099 248.4 75.0099 249.36C73.4999 249.66 71.9499 249.81 70.3599 249.81C63.6399 249.81 57.5499 247.09 53.1399 242.68C49.6799 239.21 47.2499 234.71 46.3799 229.67C46.1299 228.3 46.0099 226.9 46.0099 225.46C46.0099 220.01 47.7999 214.99 50.8199 210.93C54.7499 205.64 60.7799 202.01 67.6799 201.26C68.5599 201.16 69.4499 201.11 70.3599 201.11C71.9599 201.11 73.5299 201.26 75.0499 201.56C75.4599 201.64 75.8799 201.73 76.2799 201.84C83.9499 203.75 90.1799 209.3 93.0199 216.55C94.1099 219.31 94.7099 222.31 94.7099 225.46H94.6999Z" fill="#FF896D"/>
<path d="M377.29 203.51C377.29 216.96 366.39 227.86 352.94 227.86C339.49 227.86 328.59 216.96 328.59 203.51C328.59 190.06 339.49 179.16 352.94 179.16C366.39 179.16 377.29 190.06 377.29 203.51Z" fill="#FF896D"/>
<path d="M247.95 154.79C247.95 174.31 232.12 190.14 212.6 190.14C193.08 190.14 177.25 174.31 177.25 154.79C177.25 135.27 193.08 119.44 212.6 119.44C232.12 119.44 247.95 135.27 247.95 154.79Z" fill="#FF896D"/>
<path d="M351.38 181.04C351.38 200.56 335.55 216.39 316.03 216.39C296.51 216.39 280.68 200.56 280.68 181.04C280.68 161.52 296.51 145.69 316.03 145.69C335.55 145.69 351.38 161.52 351.38 181.04Z" fill="#FF896D"/>
<path d="M322.36 146.27C322.36 165.79 306.53 181.62 287.01 181.62C267.49 181.62 251.66 165.79 251.66 146.27C251.66 126.75 267.49 110.92 287.01 110.92C306.53 110.92 322.36 126.75 322.36 146.27Z" fill="#FF896D"/>
<path d="M359.03 157.85C359.03 177.37 343.2 193.2 323.68 193.2C304.16 193.2 288.33 177.37 288.33 157.85C288.33 138.33 304.16 122.5 323.68 122.5C343.2 122.5 359.03 138.33 359.03 157.85Z" fill="#FF896D"/>
<path d="M307 165.5C307 185.02 291.17 200.85 271.65 200.85C252.13 200.85 236.3 185.02 236.3 165.5C236.3 145.98 252.13 130.15 271.65 130.15C291.17 130.15 307 145.98 307 165.5Z" fill="#FF896D"/>
<path d="M278.42 130.39C278.42 153.52 264.46 172.27 247.23 172.27C230 172.27 216.04 153.52 216.04 130.39C216.04 107.26 230 88.51 247.23 88.51C264.46 88.51 278.42 107.26 278.42 130.39Z" fill="#FF896D"/>
<path d="M119.06 221.13C119.06 239.81 106.34 254.96 90.65 254.96C74.96 254.96 62.24 239.82 62.24 221.13C62.24 202.44 74.96 187.3 90.65 187.3C106.34 187.3 119.06 202.44 119.06 221.13Z" fill="#FF896D"/>
<path d="M195.45 150.72C195.45 169.4 182.73 184.55 167.04 184.55C151.35 184.55 138.63 169.41 138.63 150.72C138.63 132.03 151.35 116.89 167.04 116.89C182.73 116.89 195.45 132.03 195.45 150.72Z" fill="#FF896D"/>
<path d="M109.75 180C109.41 180.72 109.04 181.42 108.66 182.1C106.94 185.22 104.86 188 102.54 190.4C95.53 197.61 86.27 201.37 77.48 200.45C76.44 200.34 75.41 200.17 74.3899 199.92C72.7899 199.55 71.2199 199 69.6999 198.29C69.6299 198.26 69.5599 198.22 69.4899 198.19C60.5599 193.9 55.2999 184.67 54.6899 174.21C54.3399 168.11 55.5499 161.6 58.5299 155.4C66.6199 138.55 84.64 130.41 98.79 137.2C98.92 137.26 99.0499 137.32 99.1699 137.39C105.55 140.59 109.99 146.34 112.15 153.24C114.68 161.33 114.08 171 109.75 180Z" fill="#FF896D"/>
<path d="M372.62 161.29C372.03 163.67 371.18 166.03 370.07 168.35C367.73 173.21 364.49 177.3 360.7 180.43C359.52 181.42 358.28 182.31 357 183.11C355.93 183.77 354.84 184.36 353.72 184.89C353.34 185.07 352.95 185.24 352.57 185.4C352.06 185.61 351.54 185.81 351.03 186C348.31 186.97 345.49 187.54 342.67 187.66C340.15 187.77 337.62 187.53 335.15 186.89C333.55 186.49 331.99 185.92 330.46 185.19C330.16 185.05 329.87 184.9 329.58 184.75C324.85 182.25 321.19 178.39 318.76 173.76C317.55 171.48 316.65 169.01 316.06 166.42C314.6 159.92 315.12 152.67 317.96 145.75C318.23 145.08 318.53 144.41 318.85 143.75C319.66 142.06 320.58 140.46 321.6 138.97C324.55 134.63 328.31 131.14 332.47 128.67C334.46 127.48 336.56 126.53 338.7 125.84C345.2 123.71 352.18 123.9 358.45 126.92C362.97 129.09 366.57 132.45 369.13 136.55C373.44 143.45 374.81 152.43 372.62 161.29Z" fill="#FF896D"/>
<path d="M149.3 164.1C149.3 164.1 149.28 164.13 149.28 164.15C147.98 166.85 146.42 169.32 144.66 171.55C135.49 183.18 120.91 187.98 109.04 182.29C108.91 182.23 108.78 182.17 108.66 182.1C100.42 177.97 95.39 169.57 94.38 159.93C93.68 153.37 94.84 146.25 98.08 139.49C98.42 138.77 98.79 138.07 99.17 137.39C100.55 134.89 102.15 132.61 103.94 130.57C113.13 120.02 126.98 115.85 138.32 121.3C140.13 122.17 141.79 123.24 143.29 124.49C144.41 125.41 145.43 126.43 146.36 127.53C154.01 136.53 155.58 151.02 149.29 164.1H149.3Z" fill="#FF896D"/>
<path d="M418.07 208.47C414.74 211.41 410.38 213.73 405.37 214.98C392.32 218.22 379.78 212.97 377.37 203.25C377.34 203.12 377.31 202.98 377.28 202.85C377.04 201.75 376.94 200.64 376.97 199.53C376.98 198.99 377.03 198.46 377.1 197.93C377.13 197.69 377.18 197.44 377.23 197.2C378.7 189.5 386.26 182.35 396.62 179.77C398.11 179.4 399.6 179.14 401.06 178.99C412.41 177.79 422.49 182.89 424.63 191.5C426.11 197.49 423.42 203.77 418.07 208.47Z" fill="#FF896D"/>
<path d="M401.06 178.99C400.25 183.23 397.59 187.31 393.63 190.55C390.41 193.19 386.32 195.26 381.68 196.42C380.43 196.73 379.18 196.97 377.94 197.12C377.71 197.15 377.48 197.18 377.24 197.2C376.99 197.23 376.75 197.26 376.5 197.27C371.57 197.68 366.92 196.89 363.08 195.14C362.92 195.08 362.75 195 362.59 194.91C358.68 193.02 355.68 190.1 354.24 186.41C354.04 185.92 353.87 185.41 353.73 184.89C353.71 184.82 353.7 184.76 353.68 184.69C353.26 183.02 353.17 181.33 353.37 179.65C353.39 179.49 353.42 179.33 353.44 179.17C354.65 171.35 362.19 163.99 372.63 161.29C372.73 161.26 372.83 161.24 372.93 161.21C385.98 157.97 398.52 163.22 400.94 172.94C401.44 174.95 401.46 176.99 401.07 178.99H401.06Z" fill="#FF896D"/>
<path d="M81.8499 188.96C81.9099 192.93 80.32 196.95 77.4799 200.45C77.0999 200.92 76.6999 201.39 76.2699 201.84C76.0299 202.1 75.7799 202.35 75.5199 202.61C72.5099 205.54 68.5599 207.98 63.9599 209.49C63.7799 209.56 63.5899 209.62 63.3999 209.68C59.0799 211.02 54.7499 211.4 50.8099 210.93C48.6599 210.68 46.6299 210.18 44.7699 209.45C39.8699 207.56 36.1599 204.1 34.7199 199.47C31.7199 189.84 39.6999 178.8 52.5399 174.8C53.2599 174.58 53.9799 174.38 54.6899 174.21C57.3699 173.57 60.0199 173.3 62.5599 173.37C68.0599 173.5 73.0199 175.2 76.5399 178.14C78.7399 179.96 80.3699 182.28 81.2199 185C81.6299 186.3 81.8299 187.63 81.8499 188.96Z" fill="#FF896D"/>
<path d="M361.22 190.02C367.62 206.14 355.37 226.13 333.88 234.65C312.38 243.18 289.77 237.02 283.37 220.9C276.97 204.78 289.22 184.79 310.71 176.27C332.21 167.74 354.82 173.9 361.22 190.02Z" fill="#FF896D"/>
<path d="M152.57 169.93C158.97 186.05 146.72 206.04 125.23 214.56C103.73 223.09 81.12 216.93 74.72 200.81C68.32 184.69 80.57 164.7 102.06 156.18C123.56 147.65 146.17 153.81 152.57 169.93Z" fill="#FF896D"/>
<path d="M243.54 102.25C249.94 118.37 237.69 138.36 216.2 146.88C194.7 155.41 172.09 149.25 165.69 133.13C159.29 117.01 171.54 97.02 193.03 88.5C214.53 79.97 237.14 86.13 243.54 102.25Z" fill="#FF896D"/>
<path d="M371.66 224.01C371.66 247.14 357.7 265.89 340.47 265.89C323.24 265.89 309.28 247.14 309.28 224.01C309.28 200.88 323.24 182.13 340.47 182.13C357.7 182.13 371.66 200.88 371.66 224.01Z" fill="#FF896D"/>
<path d="M418.07 208.47C418.63 210.52 418.93 212.66 418.93 214.88C418.93 217.1 418.62 219.39 418.02 221.48C408.29 226.8 396.31 231.68 382.46 236C378.27 237.31 373.91 238.57 369.38 239.77C353.46 244 335.57 247.54 316.18 250.26C287.93 254.23 256.52 256.44 223.41 256.44C181.65 256.44 142.58 252.92 109.17 246.8C101.78 245.45 94.67 243.97 87.87 242.38C79.89 240.5 72.33 238.46 65.26 236.28C58.52 234.21 52.21 232 46.38 229.67C46.13 228.3 46.01 226.9 46.01 225.46C46.01 220.01 47.8 214.99 50.82 210.93C48.67 210.68 46.64 210.18 44.78 209.45C39.88 207.56 36.17 204.1 34.73 199.47C31.73 189.84 39.71 178.8 52.55 174.8C53.27 174.58 53.99 174.38 54.7 174.21C54.35 168.11 55.56 161.6 58.54 155.4C66.63 138.55 84.65 130.41 98.8 137.2C98.93 137.26 99.06 137.32 99.18 137.39C100.56 134.89 102.16 132.61 103.95 130.57C116.3 128.16 129.47 126.12 143.3 124.49C145.48 124.23 147.68 123.99 149.89 123.75C154.54 123.25 159.27 122.8 164.06 122.39C169.59 121.93 175.2 121.53 180.9 121.19C188.93 120.71 197.11 120.37 205.43 120.17C209.26 120.07 213.11 120.01 216.99 119.98C217.56 119.98 218.13 119.98 218.7 119.98H218.72C220.26 119.96 221.83 119.96 223.38 119.96C230.23 119.96 237.01 120.05 243.7 120.24C249.98 120.41 256.17 120.67 262.29 121C267.52 121.28 272.69 121.62 277.79 122.01C288.85 122.86 299.58 123.96 309.91 125.29C311.97 125.56 314.01 125.84 316.04 126.12C321.64 126.9 327.11 127.76 332.45 128.68C337.48 129.54 342.39 130.47 347.17 131.45C354.83 133.02 362.16 134.73 369.11 136.56C373.42 143.46 374.79 152.44 372.6 161.3C372.7 161.27 372.8 161.25 372.9 161.22C385.95 157.98 398.49 163.23 400.91 172.95C401.41 174.96 401.43 177 401.04 179C412.39 177.8 422.47 182.9 424.61 191.51C426.09 197.5 423.4 203.78 418.05 208.48L418.07 208.47Z" fill="#472620"/>
<path d="M172.28 240.45C172.28 257.97 161.4 272.17 147.98 272.17C145.6 272.17 143.29 271.72 141.12 270.89C140.76 270.75 140.76 270.26 141.1 270.09C150.23 265.54 156.73 253.98 156.73 240.45C156.73 226.92 150.24 215.37 141.1 210.82C140.76 210.65 140.76 210.16 141.12 210.02C143.29 209.19 145.6 208.74 147.98 208.74C161.4 208.74 172.28 222.94 172.28 240.46" fill="#F2F2F2"/>
<path d="M172.28 240.45C172.28 257.97 161.4 272.17 147.98 272.17C145.6 272.17 143.29 271.72 141.12 270.89C140.76 270.75 140.76 270.26 141.1 270.09C150.23 265.54 156.73 253.98 156.73 240.45C156.73 226.92 150.24 215.37 141.1 210.82C140.76 210.65 140.76 210.16 141.12 210.02C143.29 209.19 145.6 208.74 147.98 208.74C161.4 208.74 172.28 222.94 172.28 240.46" stroke="#472620" stroke-miterlimit="10"/>
<path d="M172.28 240.45C172.28 257.97 161.4 272.17 147.98 272.17C145.6 272.17 143.29 271.72 141.12 270.89C140.76 270.75 140.76 270.26 141.1 270.09C150.23 265.54 156.73 253.98 156.73 240.45C156.73 226.92 150.24 215.37 141.1 210.82C140.76 210.65 140.76 210.16 141.12 210.02C143.29 209.19 145.6 208.74 147.98 208.74C161.4 208.74 172.28 222.94 172.28 240.46V240.45Z" stroke="#472620" stroke-width="3" stroke-miterlimit="10"/>
<path d="M156.73 240.45C156.73 254.42 149.81 266.28 140.21 270.51C130.61 266.28 123.69 254.42 123.69 240.45C123.69 226.48 130.61 214.62 140.21 210.39C149.81 214.62 156.73 226.48 156.73 240.45Z" fill="#472620" stroke="#472620" stroke-miterlimit="10"/>
<path d="M156.73 240.45C156.73 254.42 149.81 266.28 140.21 270.51C130.61 266.28 123.69 254.42 123.69 240.45C123.69 226.48 130.61 214.62 140.21 210.39C149.81 214.62 156.73 226.48 156.73 240.45Z" stroke="#472620" stroke-width="3" stroke-miterlimit="10"/>
<path d="M278.66 240.45C278.66 257.97 267.78 272.17 254.36 272.17C251.98 272.17 249.67 271.72 247.5 270.89C247.14 270.75 247.14 270.26 247.48 270.09C256.61 265.54 263.11 253.98 263.11 240.45C263.11 226.92 256.62 215.37 247.48 210.82C247.14 210.65 247.14 210.16 247.5 210.02C249.67 209.19 251.98 208.74 254.36 208.74C267.78 208.74 278.66 222.94 278.66 240.46V240.45Z" fill="#F2F2F2"/>
<path d="M263.11 240.45C263.11 254.42 256.19 266.28 246.59 270.51C236.99 266.28 230.07 254.42 230.07 240.45C230.07 226.48 236.99 214.62 246.59 210.39C256.19 214.62 263.11 226.48 263.11 240.45Z" fill="#472620" stroke="#472620" stroke-width="3" stroke-miterlimit="10"/>
<path d="M446.29 176.83C446.29 214.52 346.49 245.07 223.39 245.07C100.29 245.07 0.5 214.52 0.5 176.83C0.5 139.14 100.29 108.59 223.4 108.59C346.51 108.59 446.3 139.14 446.3 176.83" fill="#9A7D79"/>
<path d="M316.96 114.81L306.57 140.15C304.6 137.96 302.62 135.71 300.64 133.41C297.86 130.18 295.1 126.86 292.37 123.44C291.01 121.75 289.68 120.03 288.35 118.3C286.59 116 284.96 113.79 283.45 111.68C294.97 112.5 306.16 113.55 316.96 114.81Z" fill="#472620"/>
<path d="M152.5 112.53C150.66 115.77 148.57 119.16 146.23 122.68C144.19 125.77 141.94 128.94 139.43 132.22C137.93 134.2 136.34 136.22 134.66 138.28L126.82 115.17C135.15 114.16 143.72 113.28 152.5 112.53Z" fill="#472620"/>
<path d="M334.62 172.46C331.73 173.46 328.64 174.49 325.34 175.52C319.52 177.34 313.09 179.16 306.08 180.86C305.07 181.11 304.05 181.35 303.01 181.6C301.97 181.84 300.92 182.08 299.86 182.32C298.81 182.56 297.75 182.79 296.68 183.01C291.52 184.11 286.09 185.13 280.42 186.05C262.84 188.87 242.88 190.59 220.98 190.08C206.91 189.75 193.76 188.54 181.65 186.78C180.25 186.58 178.86 186.37 177.49 186.15C173.34 185.49 169.32 184.78 165.44 184C164.79 183.87 164.15 183.74 163.51 183.61C161.91 183.29 160.34 182.95 158.79 182.61C158.01 182.45 157.24 182.27 156.48 182.09C156.32 182.06 156.17 182.02 156.02 181.98C155.41 181.84 154.81 181.7 154.2 181.56C150.59 180.71 147.12 179.83 143.79 178.93C142.96 178.71 142.14 178.48 141.32 178.25C139.69 177.8 138.11 177.35 136.55 176.88C135.77 176.64 135 176.42 134.24 176.19C133.23 175.88 132.23 175.57 131.25 175.26C130.27 174.94 129.3 174.64 128.36 174.33C127.41 174.02 126.48 173.71 125.57 173.4C124.73 173.12 123.91 172.84 123.1 172.55C118.84 171.07 116.43 167.74 116.43 164.3C116.43 164.1 116.44 163.9 116.46 163.69C116.46 163.45 116.5 163.22 116.55 162.99C116.57 162.88 116.59 162.79 116.61 162.7C116.63 162.61 116.65 162.51 116.68 162.42C116.7 162.31 116.73 162.22 116.76 162.13C116.96 161.47 117.26 160.81 117.66 160.19C117.8 159.97 117.95 159.76 118.12 159.53C118.28 159.32 118.46 159.11 118.64 158.91H118.65C119.63 157.84 120.6 156.77 121.54 155.7C122.49 154.63 123.43 153.57 124.35 152.52C125.25 151.49 126.14 150.45 127.01 149.43C133.3 142.01 138.77 134.87 143.5 128.06C145.18 125.64 146.77 123.27 148.27 120.94C150.78 117.09 153.03 113.37 155.07 109.74C157.41 105.61 159.5 101.63 161.34 97.82C164.03 92.28 166.22 87.09 168.03 82.29C168.48 81.09 168.9 79.93 169.31 78.78C169.31 78.78 175.97 59.92 204.91 20.02C208.81 14.63 217.78 2.87999 232.68 0.76999C233.77 0.60999 234.6 0.48999 235.61 0.48999H279.84C286.57 0.48999 292.34 4.38999 293.59 9.76999L304.24 55.54C305.05 59 300.41 61.56 296.75 59.68L294 58.26H293.99L292.16 57.31L270.43 46.08C271.14 49.02 272.26 53.24 273.91 58.26C275.55 63.25 277.56 68.59 280.33 74.62C283.29 81.1 287.13 88.36 292.29 96.82C293.8 99.3 295.43 101.89 297.19 104.59C298.52 106.62 299.85 108.64 301.21 110.63C303.94 114.65 306.7 118.54 309.48 122.34C311.46 125.04 313.44 127.68 315.41 130.25C319.09 135.05 322.74 139.61 326.26 143.87C330.85 149.41 335.21 154.47 339.19 158.94C343.34 163.6 341.12 170.2 334.62 172.45V172.46Z" fill="#9A7D79"/>
<path d="M294 58.27L270.43 46.11C269.79 31.81 272.05 20.6 273.96 13.97C274.27 19.57 275.26 26.72 277.1 32.35C281.19 44.98 289.12 53.68 294 58.27Z" fill="#472620"/>
<path d="M280.43 186.06C297.9 183.26 313.02 179.37 325.34 175.52" stroke="#472620" stroke-width="3" stroke-miterlimit="10" stroke-linecap="round"/>
<path d="M124.35 152.53C122.52 154.64 120.61 156.77 118.64 158.92C114.36 163.58 116.53 170.29 123.1 172.57C123.91 172.85 124.73 173.13 125.57 173.42" stroke="#472620" stroke-width="3" stroke-miterlimit="10" stroke-linecap="round"/>
<path d="M125.58 173.41C140.19 178.34 159.13 183.51 181.66 186.79" stroke="#472620" stroke-width="3" stroke-miterlimit="10" stroke-linecap="round"/>
<path d="M199.83 419.33C199.83 422.63 202.28 425.3 205.31 425.3C208.34 425.3 210.79 422.63 210.79 419.33C210.79 416.03 208.34 413.36 205.31 413.36C202.28 413.36 199.83 416.03 199.83 419.33Z" fill="#4D4D4D"/>
<path d="M185.46 419.7C188.32 422.09 192.77 422.3 195.38 420.16C198 418.03 197.8 414.36 194.94 411.97C192.08 409.58 187.63 409.37 185.02 411.51C182.4 413.64 182.6 417.31 185.46 419.7Z" fill="#583B33"/>
<path d="M206.84 376.96L213.7 413.93C214 415.54 213.36 417.19 212.26 417.72C208.52 419.49 201.82 421.64 193.87 419.06C187.44 416.97 182.81 412.63 180.1 409.51C179.29 408.58 179.06 406.98 179.53 405.66C180.5 402.96 181.86 399.6 183.69 395.95C185.55 392.27 186.56 390.94 188.1 387.66C189.28 385.13 190.74 381.52 191.99 376.69C192.31 375.46 193.13 374.63 194.05 374.63H204.71C205.71 374.63 206.58 375.59 206.84 376.97" fill="#583B33"/>
<path d="M267.45 427.27H238.53C236.95 427.27 235.66 425.99 235.66 424.4V407.25C235.66 405.67 236.94 404.38 238.53 404.38H267.45C269.03 404.38 270.32 405.66 270.32 407.25V424.4C270.32 425.98 269.04 427.27 267.45 427.27Z" fill="#583B33"/>
<path d="M238.9 446.3H261.98C263.53 446.3 264.63 444.79 264.15 443.32L259.83 430C259.35 428.54 257.6 427.95 256.34 428.84L237.59 442.16C235.78 443.45 236.69 446.3 238.91 446.3" fill="#583B33"/>
<path d="M230.57 427.27H201.65C200.07 427.27 198.78 425.99 198.78 424.4V407.25C198.78 405.67 200.06 404.38 201.65 404.38H230.57C232.15 404.38 233.44 405.66 233.44 407.25V424.4C233.44 425.98 232.16 427.27 230.57 427.27Z" fill="#583B33"/>
<path d="M204.57 446.3H227.65C229.2 446.3 230.3 444.79 229.82 443.32L225.5 430C225.02 428.54 223.27 427.95 222.01 428.84L203.26 442.16C201.45 443.45 202.36 446.3 204.58 446.3" fill="#583B33"/>
<path d="M282.1 420.36C277.58 421.37 260.26 425.09 247.33 419.11C240.8 416.09 236.26 412.05 233.44 409.04C231.34 411.89 227.7 415.99 222.04 419.11C209.75 425.89 190.65 421.43 187.45 420.55C187.45 400 196.53 380.86 196.53 360.31L270.3 357.96L282.11 420.35L282.1 420.36Z" fill="#A38784"/>
<path d="M235.86 376.83C235.86 384.46 229.67 390.65 222.04 390.65C214.41 390.65 208.22 384.46 208.22 376.83C208.22 369.2 214.41 363.01 222.04 363.01C229.67 363.01 235.86 369.2 235.86 376.83Z" fill="#583B33"/>
<path d="M271.148 362.011L223.463 366.948L223.974 371.881L271.659 366.945L271.148 362.011Z" fill="#583B33"/>
<path d="M196.557 364.001L196.172 368.946L231.765 371.715L232.15 366.77L196.557 364.001Z" fill="#583B33"/>
<path d="M228.87 376.83C228.87 380.6 225.81 383.66 222.04 383.66C218.27 383.66 215.21 380.6 215.21 376.83C215.21 373.06 218.27 370 222.04 370C225.81 370 228.87 373.06 228.87 376.83Z" fill="#FDFFD1"/>
<path d="M283.22 414.15C283.68 417.89 279.03 422.68 272.82 424.87C266.61 427.06 261.2 425.8 260.74 422.06C260.28 418.33 264.93 413.53 271.14 411.34C277.35 409.16 282.76 410.41 283.22 414.15Z" fill="#FFE5D1" stroke="#472620" stroke-miterlimit="10"/>
<path d="M260.99 375.57L254.13 412.54C253.83 414.15 254.47 415.8 255.57 416.33C259.31 418.1 266.01 420.25 273.96 417.67C280.39 415.58 285.02 411.24 287.73 408.12C288.54 407.19 288.77 405.59 288.3 404.27C287.33 401.57 285.97 398.21 284.14 394.56C282.28 390.88 281.27 389.55 279.73 386.27C278.55 383.74 277.09 380.13 275.84 375.3C275.52 374.07 274.7 373.24 273.78 373.24H263.12C262.12 373.24 261.25 374.2 260.99 375.58" fill="#583B33"/>
</g>
<defs>
<clipPath id="clip0_1_134">
<rect width="445.79" height="445.8" fill="white" transform="translate(0.5 0.5)"/>
</clipPath>
</defs>
</svg>
