<svg width="218" height="91" viewBox="0 0 218 91" fill="none" xmlns="http://www.w3.org/2000/svg">
<g clip-path="url(#clip0_1_272)">
<path d="M119.813 85.5075C137.843 85.5075 152.46 70.8907 152.46 52.86C152.46 34.8292 137.843 20.2125 119.813 20.2125C101.782 20.2125 87.165 34.8292 87.165 52.86C87.165 70.8907 101.782 85.5075 119.813 85.5075Z" fill="black"/>
<path d="M173.228 29.3325C168.57 28.71 163.973 28.68 159.54 29.0775C158.76 29.145 158.033 28.6875 157.785 27.945L149.918 4.44746C149.61 3.53996 148.613 3.06746 147.713 3.40496L126.165 11.5575C125.693 11.7375 125.168 11.7 124.733 11.4525L104.768 0.217461C103.935 -0.255039 102.87 0.0674608 102.42 0.922461L85.0426 34.005C84.5851 34.875 83.4976 35.175 82.6576 34.68C73.9876 29.58 62.3026 25.1175 49.5226 24.9225C25.4776 24.54 4.66509 39.375 0.96759 45.825C0.39759 46.815 1.02009 48.06 2.13759 48.2775C2.67009 48.3825 3.32259 48.525 4.05759 48.6975C10.8151 50.2725 25.0426 54.645 28.7926 64.2075C29.2276 65.325 30.6376 65.6475 31.5151 64.83C36.4426 60.2625 49.1551 49.965 54.5326 59.6325C55.0651 60.585 56.3476 60.78 57.1501 60.0375C61.0876 56.415 71.5201 48.81 84.0826 55.635C84.5851 55.905 84.9001 56.4375 84.9376 57.0075C86.1301 73.74 98.7451 87.9375 116.025 90.45C134.663 93.1575 152.153 81.33 156.99 63.5175C157.358 62.1675 159.09 61.7625 159.96 62.85C159.975 62.8725 159.99 62.8875 160.005 62.91C160.673 63.7575 161.978 63.735 162.645 62.88C169.523 54.12 180.413 66.165 184.545 71.4075C185.288 72.345 186.728 72.2325 187.335 71.1975C192.593 62.31 207.353 60.0825 214.29 59.5275C215.048 59.4675 215.708 59.4225 216.255 59.4C217.388 59.3475 218.205 58.2075 217.808 57.15C215.198 50.235 197.04 32.505 173.228 29.3325Z" fill="white"/>
<path d="M165.36 30.3075C161.13 29.73 156.953 29.7 152.948 30.06C152.4 30.1125 151.89 29.7825 151.718 29.265L144.458 7.81498C144.24 7.17748 143.543 6.84748 142.913 7.07998L123.338 14.4225C123.008 14.55 122.64 14.52 122.333 14.3475L104.13 4.06498C103.545 3.73498 102.803 3.95248 102.488 4.55248L86.8426 34.4775C86.5276 35.085 85.7626 35.295 85.1776 34.9425C77.4301 30.315 66.9001 26.205 55.4026 25.9875C33.3976 25.56 14.4826 39.48 12.0676 44.8875C11.7601 45.57 12.2176 46.35 12.9451 46.4925C13.4851 46.5975 14.2126 46.7475 15.0751 46.95C21.1951 48.3975 34.1776 52.44 37.2751 61.2525C37.5526 62.0475 38.5876 62.265 39.2026 61.68C43.3426 57.78 55.2826 47.79 60.1276 57.1125C60.5026 57.8325 61.4401 58.02 62.0251 57.4575C65.2876 54.3675 74.8051 47.04 86.3776 53.46C86.7301 53.655 86.9476 54.0225 86.9776 54.4275C88.0201 69.3675 99.3076 82.1175 114.735 84.4125C131.52 86.9175 147.218 76.155 151.215 60.015C151.448 59.0775 152.648 58.7925 153.27 59.5275C153.533 59.8425 153.765 60.135 153.968 60.3975C154.463 61.035 155.408 60.9825 155.888 60.3375C162.12 51.8775 172.365 63.6 175.853 68.0925C176.37 68.76 177.42 68.7075 177.825 67.965C182.25 59.7375 195.705 57.7575 201.975 57.2775C202.86 57.21 203.595 57.1725 204.15 57.15C204.893 57.12 205.463 56.415 205.268 55.695C203.715 49.9725 187.193 33.2925 165.383 30.3075H165.36Z" fill="black" stroke="white" stroke-width="1.5" stroke-miterlimit="10"/>
<path d="M124.415 48.0377C124.515 42.1029 122.87 37.2628 120.741 37.2271C118.612 37.1915 116.806 41.9737 116.706 47.9085C116.607 53.8434 118.252 58.6835 120.381 58.7191C122.509 58.7548 124.316 53.9726 124.415 48.0377Z" fill="white"/>
<path d="M136.429 48.2377C136.529 42.3028 134.884 37.4628 132.755 37.4271C130.626 37.3914 128.82 42.1737 128.72 48.1085C128.621 54.0433 130.266 58.8834 132.395 58.9191C134.523 58.9548 136.33 54.1725 136.429 48.2377Z" fill="white"/>
</g>
<defs>
<clipPath id="clip0_1_272">
<rect width="217.155" height="90.8325" fill="white" transform="translate(0.750122)"/>
</clipPath>
</defs>
</svg>
