<svg width="53" height="54" viewBox="0 0 53 54" fill="none" xmlns="http://www.w3.org/2000/svg">
<g filter="url(#filter0_f_202_135)">
<path d="M5.07457 27.7679C5.07457 13.8053 13.6686 4.53229 26.6762 4.53229C39.6627 4.53229 48.2779 13.8053 48.2779 27.7679C48.2779 34.155 46.4105 41.1999 43.2913 46.6746C42.8244 47.5234 41.9332 47.7993 41.042 47.4385C40.0871 48.9663 38.3683 49.5817 36.3736 49.0088C33.9334 48.3085 32.7875 46.2078 33.509 43.7463L36.5434 33.3911C37.2649 30.972 39.3232 29.8262 41.7847 30.5264C42.9517 30.8659 43.8217 31.5237 44.331 32.3938C44.5644 30.8235 44.6705 29.2745 44.6705 27.7679C44.6705 15.9909 37.4558 8.13964 26.6762 8.13964C15.8754 8.13964 8.68192 15.9909 8.68192 27.7679C8.68192 29.2745 8.78802 30.8235 9.00022 32.3725C9.53071 31.5237 10.3795 30.8659 11.5466 30.5264C14.0081 29.8262 16.0876 30.972 16.7878 33.3911L19.8223 43.7463C20.5437 46.1866 19.3979 48.3085 16.9576 49.0088C14.963 49.5817 13.2442 48.9663 12.2893 47.4385C11.398 47.7993 10.528 47.5234 10.04 46.6746C6.92069 41.1999 5.07457 34.155 5.07457 27.7679Z" fill="white"/>
</g>
<defs>
<filter id="filter0_f_202_135" x="0.728783" y="0.186493" width="51.8949" height="53.741" filterUnits="userSpaceOnUse" color-interpolation-filters="sRGB">
<feFlood flood-opacity="0" result="BackgroundImageFix"/>
<feBlend mode="normal" in="SourceGraphic" in2="BackgroundImageFix" result="shape"/>
<feGaussianBlur stdDeviation="2.1729" result="effect1_foregroundBlur_202_135"/>
</filter>
</defs>
</svg>
