<svg width="27" height="31" viewBox="0 0 27 31" fill="none" xmlns="http://www.w3.org/2000/svg">
<path d="M13.8853 4.94104C13.8875 4.94108 13.8955 4.94139 13.9048 4.94202C13.9078 4.94222 13.913 4.9423 13.9194 4.94299C13.9241 4.9435 13.9381 4.94509 13.9556 4.94885C13.9651 4.95106 13.989 4.95851 14.0034 4.9635C14.0283 4.97384 14.0972 5.01574 14.1372 5.05237C14.186 5.12494 14.2096 5.28216 14.1938 5.40002C14.5106 5.42096 14.812 5.46208 15.0825 5.51038L15.0688 6.20081L14.9858 6.21155L15.8022 6.69006L15.8413 6.71252L15.8726 6.74475C15.9599 6.8321 16.0559 6.93753 16.1011 7.06311C16.1281 7.13851 16.1371 7.22097 16.1216 7.3053C16.1074 7.38263 16.0758 7.44113 16.0562 7.47424C16.0019 7.56566 16.012 7.53601 15.9937 7.57678C15.9878 7.58988 15.9751 7.62148 15.9751 7.69104C15.9751 7.74295 15.9694 7.87124 15.8745 7.98108C15.7499 8.12508 15.5815 8.12432 15.4888 8.10315C15.407 8.08445 15.3413 8.0447 15.3032 8.01917C15.2594 7.98977 15.2163 7.95468 15.1772 7.92053C15.1076 7.85966 15.0271 7.77918 14.9419 7.69202L15.2329 8.22131L15.3628 8.45667L15.1685 8.64221C15.1522 8.65777 15.1339 8.67132 15.1157 8.68518L15.5249 9.02698L15.228 9.63635C14.8128 9.54833 13.7755 9.43811 13.2388 9.43811C8.66393 9.4383 5.42334 13.2146 5.42334 17.8688C5.4235 22.4751 9.17301 26.2125 13.7808 26.2125C18.3885 26.2125 22.138 22.4751 22.1382 17.8688C22.1382 17.2891 22.2893 16.8523 22.7124 16.6207C22.8997 16.5182 23.1123 16.474 23.3218 16.4518C23.532 16.4295 23.7682 16.4274 24.0132 16.4274C24.5025 16.4274 25.0513 16.4325 25.4751 16.6041C25.6995 16.695 25.9058 16.8381 26.0522 17.0621C26.1976 17.2848 26.2642 17.5566 26.2642 17.8688C26.264 24.7685 20.6805 30.3521 13.7808 30.3522C6.88096 30.3522 1.29753 24.7685 1.29736 17.8688C1.29736 11.2816 6.38616 5.89335 12.8511 5.41858C12.8863 5.24404 13.0154 5.15038 13.0815 5.11096C13.2188 5.02933 13.4019 4.99491 13.5171 4.97717C13.5435 4.97311 13.57 4.97254 13.5952 4.96936C13.6564 4.95047 13.719 4.94104 13.7808 4.94104C13.8322 4.94104 13.8722 4.94082 13.8853 4.94104ZM12.7427 6.52112C12.8653 6.59611 12.9905 6.66352 13.1099 6.70959C13.2401 6.75981 13.3338 6.77416 13.3921 6.76917C13.4346 6.76552 13.4508 6.75434 13.4692 6.72815C13.4757 6.71893 13.4822 6.7062 13.4897 6.69006C13.4498 6.61135 13.41 6.52507 13.3735 6.4342L12.7427 6.52112Z" fill="white" stroke="white" stroke-width="0.698944"/>
<path d="M11.833 12.681L11.5231 1.82898L21.0776 6.98609L11.833 12.681Z" fill="white" stroke="white" stroke-width="0.698944"/>
</svg>
