<svg width="50" height="72" viewBox="0 0 50 72" fill="none" xmlns="http://www.w3.org/2000/svg">
<path d="M15.6636 11.581L15.6946 12.9156V28H11.4114V14.7158C11.4114 12.9777 11.2872 11.7569 11.0389 11.0534C10.8113 10.3498 10.3147 9.50147 9.54912 8.50826L13.2737 5.90108C13.8737 6.29423 14.4324 6.96672 14.9497 7.91854C16.5844 6.57357 17.6914 5.90108 18.2707 5.90108C18.8501 5.90108 19.7606 6.44942 21.0021 7.54609C22.2643 8.62206 23.0506 9.38766 23.3609 9.84288C23.6713 10.2774 23.8265 10.8568 23.8265 11.581V28H19.5123V12.2018C19.5123 12.0155 19.4295 11.7879 19.2639 11.5189C19.1191 11.2292 18.8811 10.9085 18.5501 10.5568C18.2397 10.205 17.9397 10.0291 17.65 10.0291C17.381 10.0291 17.0396 10.1946 16.6257 10.5257C16.2119 10.8361 15.8912 11.1879 15.6636 11.581ZM35.8857 26.355C34.4165 27.7 33.3095 28.3725 32.5646 28.3725C31.8197 28.3725 30.7023 27.7 29.2125 26.355C27.7434 24.9893 26.833 23.8823 26.4812 23.034C26.2536 22.496 26.1398 21.1406 26.1398 18.968V15.3055C26.1398 13.1329 26.2536 11.7776 26.4812 11.2396C26.833 10.3912 27.7434 9.29455 29.2125 7.94958C30.7023 6.58392 31.8197 5.90108 32.5646 5.90108C33.3095 5.90108 34.4165 6.58392 35.8857 7.94958C37.3755 9.29455 38.2963 10.3912 38.648 11.2396C38.8756 11.7776 38.9894 13.1329 38.9894 15.3055V18.968C38.9894 21.1406 38.8756 22.496 38.648 23.034C38.2963 23.8823 37.3755 24.9893 35.8857 26.355ZM31.5093 23.3133C31.9232 23.7271 32.2749 23.934 32.5646 23.934C32.8543 23.934 33.1957 23.7271 33.5889 23.3133C34.0027 22.8788 34.2924 22.4753 34.4579 22.1028C34.6235 21.7097 34.7062 20.6647 34.7062 18.968V15.3055C34.7062 13.6088 34.6235 12.5742 34.4579 12.2018C34.2924 11.8086 34.0027 11.4051 33.5889 10.9913C33.1957 10.5568 32.8543 10.3395 32.5646 10.3395C32.2749 10.3395 31.9232 10.5568 31.5093 10.9913C31.1162 11.4051 30.8368 11.8086 30.6713 12.2018C30.5058 12.5742 30.423 13.6088 30.423 15.3055V18.968C30.423 20.6647 30.5058 21.7097 30.6713 22.1028C30.8368 22.4753 31.1162 22.8788 31.5093 23.3133ZM5.66442 43.9185C7.13354 42.5736 8.2509 41.9011 9.0165 41.9011C9.7821 41.9011 10.8995 42.5736 12.3686 43.9185C13.8377 45.2635 14.7482 46.3705 15.0999 47.2396C15.3275 47.8397 15.4413 49.195 15.4413 51.3055V64H11.1581V59.3443H6.87489V64H2.59168V51.3055C2.59168 49.195 2.70548 47.8397 2.93309 47.2396C3.28486 46.3705 4.1953 45.2635 5.66442 43.9185ZM6.87489 51.3055V55.6198H11.1581V51.3055C11.1581 49.6088 11.0753 48.5742 10.9098 48.2018C10.7443 47.8086 10.4546 47.4051 10.0408 46.9913C9.64761 46.5568 9.30619 46.3395 9.0165 46.3395C8.72682 46.3395 8.37505 46.5568 7.96122 46.9913C7.56807 47.4051 7.28873 47.8086 7.1232 48.2018C6.95766 48.5742 6.87489 49.6088 6.87489 51.3055ZM22.5388 43.5151C23.9045 42.4391 24.9391 41.9011 25.6426 41.9011C26.3461 41.9011 27.4324 42.5839 28.9015 43.9496C30.3914 45.2946 31.3122 46.3912 31.6639 47.2396C31.8915 47.7776 32.0053 49.1329 32.0053 51.3055V54.968C32.0053 57.1406 31.8915 58.496 31.6639 59.034C31.2915 59.8409 30.3914 60.8755 28.9636 62.1377C27.5359 63.3792 26.4082 64 25.5805 64H19.1557V50.7158C19.1557 49.0398 19.0315 47.8603 18.7832 47.1775C18.5556 46.4947 18.059 45.6877 17.2934 44.7566L21.3904 41.9011C21.8249 42.2322 22.2077 42.7701 22.5388 43.5151ZM25.5805 46.3395C24.9804 46.3395 24.2355 46.5361 23.3458 46.9292C23.4079 47.3637 23.4389 48.0259 23.4389 48.9156V60.2444H25.5805C25.8702 60.2444 26.2116 60.0375 26.6048 59.6237C27.0186 59.1891 27.3083 58.7856 27.4738 58.4132C27.6393 58.02 27.7221 56.9751 27.7221 55.2784V51.3055C27.7221 49.6088 27.6393 48.5742 27.4738 48.2018C27.3083 47.8086 27.0186 47.4051 26.6048 46.9913C26.2116 46.5568 25.8702 46.3395 25.5805 46.3395ZM46.847 55.2473C47.0746 55.6198 47.1884 56.3647 47.1884 57.4821C47.1884 58.5787 46.9608 59.5099 46.5056 60.2755C46.0917 60.8755 45.2123 61.7135 43.8673 62.7895C42.5224 63.8448 41.5292 64.3725 40.8877 64.3725C39.7497 64.3725 38.4461 63.7827 36.977 62.6033C35.5078 61.4032 34.5767 60.0892 34.1836 58.6615L37.6287 56.3026C37.9598 57.2751 38.4875 58.1649 39.2117 58.9719C39.9359 59.7789 40.4428 60.1824 40.7325 60.1824C41.0429 60.1824 41.3636 60.0892 41.6947 59.903C42.0465 59.6961 42.3155 59.4892 42.5017 59.2823C42.7707 58.9512 42.9052 58.4339 42.9052 57.7304C42.9052 57.0268 42.7396 56.5923 42.4086 56.4268C41.9947 56.075 41.1878 55.6094 39.9876 55.0301C38.8082 54.4507 37.7115 53.8299 36.6976 53.1678C35.6837 52.485 35.0319 51.8228 34.7422 51.1814C34.4732 50.5399 34.3387 49.7123 34.3387 48.6984C34.3387 47.6638 34.5664 46.7637 35.0216 45.9981C35.4354 45.398 36.3148 44.5703 37.6598 43.5151C39.0048 42.4391 39.998 41.9011 40.6394 41.9011C41.7775 41.9011 43.0811 42.5011 44.5502 43.7013C46.0193 44.8807 46.9504 46.1843 47.3436 47.612L43.8984 50.002C43.5673 49.0294 43.0397 48.1397 42.3155 47.3327C41.5912 46.505 41.0739 46.0912 40.7636 46.0912C40.4739 46.0912 40.1532 46.1843 39.8014 46.3705C39.4496 46.5568 39.1599 46.7947 38.9323 47.0844C38.7254 47.3534 38.622 47.8293 38.622 48.5121C38.622 49.1743 38.8289 49.6192 39.2427 49.8468C39.5738 50.1364 40.329 50.5917 41.5085 51.2124C44.5295 52.8678 46.309 54.2127 46.847 55.2473Z" fill="white"/>
<g filter="url(#filter0_f_58_515)">
<path d="M15.6636 11.581L15.6946 12.9156V28H11.4114V14.7158C11.4114 12.9777 11.2872 11.7569 11.0389 11.0534C10.8113 10.3498 10.3147 9.50147 9.54912 8.50826L13.2737 5.90108C13.8737 6.29423 14.4324 6.96672 14.9497 7.91854C16.5844 6.57357 17.6914 5.90108 18.2707 5.90108C18.8501 5.90108 19.7606 6.44942 21.0021 7.54609C22.2643 8.62206 23.0506 9.38766 23.3609 9.84288C23.6713 10.2774 23.8265 10.8568 23.8265 11.581V28H19.5123V12.2018C19.5123 12.0155 19.4295 11.7879 19.2639 11.5189C19.1191 11.2292 18.8811 10.9085 18.5501 10.5568C18.2397 10.205 17.9397 10.0291 17.65 10.0291C17.381 10.0291 17.0396 10.1946 16.6257 10.5257C16.2119 10.8361 15.8912 11.1879 15.6636 11.581ZM35.8857 26.355C34.4165 27.7 33.3095 28.3725 32.5646 28.3725C31.8197 28.3725 30.7023 27.7 29.2125 26.355C27.7434 24.9893 26.833 23.8823 26.4812 23.034C26.2536 22.496 26.1398 21.1406 26.1398 18.968V15.3055C26.1398 13.1329 26.2536 11.7776 26.4812 11.2396C26.833 10.3912 27.7434 9.29455 29.2125 7.94958C30.7023 6.58392 31.8197 5.90108 32.5646 5.90108C33.3095 5.90108 34.4165 6.58392 35.8857 7.94958C37.3755 9.29455 38.2963 10.3912 38.648 11.2396C38.8756 11.7776 38.9894 13.1329 38.9894 15.3055V18.968C38.9894 21.1406 38.8756 22.496 38.648 23.034C38.2963 23.8823 37.3755 24.9893 35.8857 26.355ZM31.5093 23.3133C31.9232 23.7271 32.2749 23.934 32.5646 23.934C32.8543 23.934 33.1957 23.7271 33.5889 23.3133C34.0027 22.8788 34.2924 22.4753 34.4579 22.1028C34.6235 21.7097 34.7062 20.6647 34.7062 18.968V15.3055C34.7062 13.6088 34.6235 12.5742 34.4579 12.2018C34.2924 11.8086 34.0027 11.4051 33.5889 10.9913C33.1957 10.5568 32.8543 10.3395 32.5646 10.3395C32.2749 10.3395 31.9232 10.5568 31.5093 10.9913C31.1162 11.4051 30.8368 11.8086 30.6713 12.2018C30.5058 12.5742 30.423 13.6088 30.423 15.3055V18.968C30.423 20.6647 30.5058 21.7097 30.6713 22.1028C30.8368 22.4753 31.1162 22.8788 31.5093 23.3133ZM5.66442 43.9185C7.13354 42.5736 8.2509 41.9011 9.0165 41.9011C9.7821 41.9011 10.8995 42.5736 12.3686 43.9185C13.8377 45.2635 14.7482 46.3705 15.0999 47.2396C15.3275 47.8397 15.4413 49.195 15.4413 51.3055V64H11.1581V59.3443H6.87489V64H2.59168V51.3055C2.59168 49.195 2.70548 47.8397 2.93309 47.2396C3.28486 46.3705 4.1953 45.2635 5.66442 43.9185ZM6.87489 51.3055V55.6198H11.1581V51.3055C11.1581 49.6088 11.0753 48.5742 10.9098 48.2018C10.7443 47.8086 10.4546 47.4051 10.0408 46.9913C9.64761 46.5568 9.30619 46.3395 9.0165 46.3395C8.72682 46.3395 8.37505 46.5568 7.96122 46.9913C7.56807 47.4051 7.28873 47.8086 7.1232 48.2018C6.95766 48.5742 6.87489 49.6088 6.87489 51.3055ZM22.5388 43.5151C23.9045 42.4391 24.9391 41.9011 25.6426 41.9011C26.3461 41.9011 27.4324 42.5839 28.9015 43.9496C30.3914 45.2946 31.3122 46.3912 31.6639 47.2396C31.8915 47.7776 32.0053 49.1329 32.0053 51.3055V54.968C32.0053 57.1406 31.8915 58.496 31.6639 59.034C31.2915 59.8409 30.3914 60.8755 28.9636 62.1377C27.5359 63.3792 26.4082 64 25.5805 64H19.1557V50.7158C19.1557 49.0398 19.0315 47.8603 18.7832 47.1775C18.5556 46.4947 18.059 45.6877 17.2934 44.7566L21.3904 41.9011C21.8249 42.2322 22.2077 42.7701 22.5388 43.5151ZM25.5805 46.3395C24.9804 46.3395 24.2355 46.5361 23.3458 46.9292C23.4079 47.3637 23.4389 48.0259 23.4389 48.9156V60.2444H25.5805C25.8702 60.2444 26.2116 60.0375 26.6048 59.6237C27.0186 59.1891 27.3083 58.7856 27.4738 58.4132C27.6393 58.02 27.7221 56.9751 27.7221 55.2784V51.3055C27.7221 49.6088 27.6393 48.5742 27.4738 48.2018C27.3083 47.8086 27.0186 47.4051 26.6048 46.9913C26.2116 46.5568 25.8702 46.3395 25.5805 46.3395ZM46.847 55.2473C47.0746 55.6198 47.1884 56.3647 47.1884 57.4821C47.1884 58.5787 46.9608 59.5099 46.5056 60.2755C46.0917 60.8755 45.2123 61.7135 43.8673 62.7895C42.5224 63.8448 41.5292 64.3725 40.8877 64.3725C39.7497 64.3725 38.4461 63.7827 36.977 62.6033C35.5078 61.4032 34.5767 60.0892 34.1836 58.6615L37.6287 56.3026C37.9598 57.2751 38.4875 58.1649 39.2117 58.9719C39.9359 59.7789 40.4428 60.1824 40.7325 60.1824C41.0429 60.1824 41.3636 60.0892 41.6947 59.903C42.0465 59.6961 42.3155 59.4892 42.5017 59.2823C42.7707 58.9512 42.9052 58.4339 42.9052 57.7304C42.9052 57.0268 42.7396 56.5923 42.4086 56.4268C41.9947 56.075 41.1878 55.6094 39.9876 55.0301C38.8082 54.4507 37.7115 53.8299 36.6976 53.1678C35.6837 52.485 35.0319 51.8228 34.7422 51.1814C34.4732 50.5399 34.3387 49.7123 34.3387 48.6984C34.3387 47.6638 34.5664 46.7637 35.0216 45.9981C35.4354 45.398 36.3148 44.5703 37.6598 43.5151C39.0048 42.4391 39.998 41.9011 40.6394 41.9011C41.7775 41.9011 43.0811 42.5011 44.5502 43.7013C46.0193 44.8807 46.9504 46.1843 47.3436 47.612L43.8984 50.002C43.5673 49.0294 43.0397 48.1397 42.3155 47.3327C41.5912 46.505 41.0739 46.0912 40.7636 46.0912C40.4739 46.0912 40.1532 46.1843 39.8014 46.3705C39.4496 46.5568 39.1599 46.7947 38.9323 47.0844C38.7254 47.3534 38.622 47.8293 38.622 48.5121C38.622 49.1743 38.8289 49.6192 39.2427 49.8468C39.5738 50.1364 40.329 50.5917 41.5085 51.2124C44.5295 52.8678 46.309 54.2127 46.847 55.2473Z" fill="white"/>
</g>
<defs>
<filter id="filter0_f_58_515" x="0.269094" y="3.57851" width="49.3971" height="63.1165" filterUnits="userSpaceOnUse" color-interpolation-filters="sRGB">
<feFlood flood-opacity="0" result="BackgroundImageFix"/>
<feBlend mode="normal" in="SourceGraphic" in2="BackgroundImageFix" result="shape"/>
<feGaussianBlur stdDeviation="1.16129" result="effect1_foregroundBlur_58_515"/>
</filter>
</defs>
</svg>
