<svg width="33" height="29" viewBox="0 0 33 29" fill="none" xmlns="http://www.w3.org/2000/svg">
<path d="M2.51595 15.6896C1.50684 15.6896 0.863525 15.0211 0.863525 14.1381C0.863525 13.6714 1.09058 13.1794 1.51945 12.8263L14.6632 1.78906C15.3317 1.22144 16.1012 0.94393 16.8706 0.94393C17.6274 0.94393 18.3969 1.22144 19.078 1.78906L24.5146 6.35531V4.51367C24.5146 3.93343 24.9057 3.55501 25.4859 3.55501H27.8069C28.3997 3.55501 28.7782 3.93343 28.7782 4.51367V9.93766L32.2218 12.8263C32.638 13.1794 32.8777 13.6714 32.8777 14.1381C32.8777 15.0211 32.2344 15.6896 31.2253 15.6896C30.7585 15.6896 30.3044 15.4626 29.926 15.1346L28.7782 14.1886V25.5789C28.7782 27.5972 27.5294 28.8459 25.3976 28.8459H8.33097C6.21183 28.8459 4.96305 27.6098 4.96305 25.5789V14.1886L3.81519 15.1346C3.43677 15.4626 2.98267 15.6896 2.51595 15.6896ZM20.4908 18.4142V25.5916H24.3507C25.1075 25.5916 25.5238 25.1627 25.5238 24.4058V11.4513L17.5644 4.77857C17.3373 4.58936 17.0977 4.48844 16.8706 4.48844C16.6309 4.48844 16.3913 4.58936 16.1768 4.77857L8.21745 11.4513V24.4058C8.21745 25.1627 8.63371 25.5916 9.37793 25.5916H13.2504V18.4142C13.2504 17.8088 13.6541 17.4177 14.2595 17.4177H19.4943C20.0998 17.4177 20.4908 17.8088 20.4908 18.4142Z" fill="white"/>
</svg>
