<svg width="64" height="45" viewBox="0 0 64 45" fill="none" xmlns="http://www.w3.org/2000/svg">
<g filter="url(#filter0_f_51_2002)">
<path d="M11.5348 34.3643C11.2523 34.6822 10.8933 34.8411 10.4577 34.8411C10.0222 34.8411 9.63375 34.6527 9.29238 34.2761C7.90335 32.7811 6.83804 31.0625 6.09645 29.1202C5.35485 27.1661 4.98405 25.1061 4.98405 22.9402C4.98405 20.7743 5.35485 18.7202 6.09645 16.7779C6.84981 14.8238 7.91513 13.0993 9.29238 11.6044C9.63375 11.2277 10.0222 11.0393 10.4577 11.0393C10.8933 11.0276 11.2523 11.1865 11.5348 11.5161C11.8056 11.8457 11.9115 12.1988 11.8527 12.5755C11.7938 12.9522 11.6055 13.3171 11.2876 13.6702C10.1811 14.8945 9.33358 16.3011 8.74501 17.8903C8.15644 19.4676 7.86215 21.151 7.86215 22.9402C7.86215 24.7295 8.15644 26.4187 8.74501 28.0078C9.33358 29.5852 10.1811 30.986 11.2876 32.2102C11.5937 32.5633 11.7761 32.9341 11.835 33.3226C11.9056 33.6993 11.8056 34.0465 11.5348 34.3643ZM16.3199 29.5793C16.0256 29.9089 15.6489 30.0737 15.1898 30.0737C14.7425 30.0737 14.36 29.8736 14.0421 29.4733C13.3241 28.5905 12.7649 27.5899 12.3647 26.4716C11.9763 25.3416 11.782 24.1644 11.782 22.9402C11.782 21.716 11.9763 20.5447 12.3647 19.4264C12.7649 18.2964 13.3241 17.2899 14.0421 16.4071C14.36 16.0069 14.7425 15.8067 15.1898 15.8067C15.6489 15.8067 16.0256 15.9657 16.3199 16.2835C16.5789 16.6013 16.673 16.9486 16.6024 17.3253C16.5436 17.6902 16.3729 18.061 16.0904 18.4376C15.6195 19.038 15.2605 19.7266 15.0133 20.5035C14.7661 21.2804 14.6425 22.0927 14.6425 22.9402C14.6425 23.7877 14.7661 24.6 15.0133 25.3769C15.2605 26.1538 15.6195 26.8424 16.0904 27.4428C16.3729 27.8194 16.5436 28.1961 16.6024 28.5728C16.673 28.9377 16.5789 29.2732 16.3199 29.5793ZM52.9937 34.3643C52.7229 34.0465 52.617 33.6993 52.6759 33.3226C52.7347 32.9341 52.9231 32.5633 53.2409 32.2102C54.3356 30.986 55.1832 29.5852 55.7835 28.0078C56.3838 26.4187 56.684 24.7295 56.684 22.9402C56.684 21.151 56.3838 19.4676 55.7835 17.8903C55.1949 16.3011 54.3474 14.8945 53.2409 13.6702C52.9231 13.3171 52.7347 12.9522 52.6759 12.5755C52.617 12.1988 52.7229 11.8457 52.9937 11.5161C53.2762 11.1865 53.6352 11.0276 54.0708 11.0393C54.5063 11.0393 54.8948 11.2277 55.2361 11.6044C56.6134 13.0993 57.6728 14.8238 58.4144 16.7779C59.1678 18.7202 59.5445 20.7743 59.5445 22.9402C59.5445 25.1061 59.1737 27.1661 58.4321 29.1202C57.6905 31.0625 56.6252 32.7811 55.2361 34.2761C54.883 34.6527 54.4886 34.8411 54.0531 34.8411C53.6293 34.8411 53.2762 34.6822 52.9937 34.3643ZM48.2086 29.5793C47.9379 29.2732 47.8378 28.9377 47.9084 28.5728C47.9791 28.1961 48.1556 27.8194 48.4382 27.4428C48.909 26.8424 49.268 26.1538 49.5152 25.3769C49.7624 24.6 49.886 23.7877 49.886 22.9402C49.886 22.0927 49.7624 21.2804 49.5152 20.5035C49.268 19.7266 48.909 19.038 48.4382 18.4376C48.1556 18.061 47.9791 17.6902 47.9084 17.3253C47.8378 16.9486 47.9379 16.6013 48.2086 16.2835C48.5029 15.9657 48.8737 15.8067 49.321 15.8067C49.7683 15.8067 50.1568 16.0069 50.4864 16.4071C51.2044 17.2899 51.7577 18.2964 52.1461 19.4264C52.5464 20.5447 52.7465 21.716 52.7465 22.9402C52.7465 24.1644 52.5464 25.3416 52.1461 26.4716C51.7577 27.5899 51.2044 28.5905 50.4864 29.4733C50.1568 29.8736 49.7683 30.0737 49.321 30.0737C48.8737 30.0737 48.5029 29.9089 48.2086 29.5793ZM21.2109 36.4655V9.41487C21.2109 8.07293 21.6406 6.98997 22.4999 6.16597C23.3592 5.34197 24.4951 4.92997 25.9077 4.92997H38.6738C40.0628 4.92997 41.1811 5.34197 42.0286 6.16597C42.8879 6.98997 43.3176 8.07293 43.3176 9.41487V36.4479C43.3176 37.8016 42.8879 38.8846 42.0286 39.6968C41.1811 40.5208 40.0628 40.9328 38.6738 40.9328H25.9077C24.4951 40.9328 23.3592 40.5208 22.4999 39.6968C21.6406 38.8846 21.2109 37.8075 21.2109 36.4655ZM24.2126 34.947H40.3159V10.9334H24.2126V34.947ZM32.2819 39.1847C32.6939 39.1847 33.0471 39.0376 33.3413 38.7433C33.6356 38.449 33.7828 38.09 33.7828 37.6662C33.7828 37.2542 33.6356 36.9011 33.3413 36.6068C33.0471 36.3125 32.6939 36.1654 32.2819 36.1654C31.8581 36.1654 31.4991 36.3125 31.2048 36.6068C30.9223 36.9011 30.7811 37.2542 30.7811 37.6662C30.7811 38.09 30.9223 38.449 31.2048 38.7433C31.4991 39.0376 31.8581 39.1847 32.2819 39.1847ZM28.98 8.03762C28.98 8.23773 29.0448 8.39665 29.1743 8.51436C29.3037 8.63208 29.4627 8.69093 29.651 8.69093H34.8952C35.0835 8.69093 35.2365 8.63208 35.3542 8.51436C35.4837 8.39665 35.5485 8.23773 35.5485 8.03762C35.5485 7.82574 35.4837 7.66094 35.3542 7.54322C35.2365 7.41374 35.0835 7.34899 34.8952 7.34899H29.651C29.4627 7.34899 29.3037 7.41374 29.1743 7.54322C29.0448 7.66094 28.98 7.82574 28.98 8.03762Z" fill="white"/>
</g>
<defs>
<filter id="filter0_f_51_2002" x="0.984039" y="0.929977" width="62.5604" height="44.0028" filterUnits="userSpaceOnUse" color-interpolation-filters="sRGB">
<feFlood flood-opacity="0" result="BackgroundImageFix"/>
<feBlend mode="normal" in="SourceGraphic" in2="BackgroundImageFix" result="shape"/>
<feGaussianBlur stdDeviation="2" result="effect1_foregroundBlur_51_2002"/>
</filter>
</defs>
</svg>
