<svg width="276" height="344" viewBox="0 0 276 344" fill="none" xmlns="http://www.w3.org/2000/svg">
<path d="M120.682 343.971C126.227 271.356 121.911 197.954 108.04 126.302C103.378 102.206 97.6136 78.2502 90.7908 54.4961L109.546 47.5535C130.573 93.8326 147.505 142.044 160.048 191.467C172.734 241.357 180.348 292.467 184 343.971L120.687 343.963L120.682 343.971Z" fill="black"/>
<path d="M202.883 24.4603C200.986 25.0038 199.125 25.6036 197.31 26.2648C185.225 13.9287 166.936 8.45533 149.183 13.5745C141.443 15.81 134.685 19.8066 129.218 25.0025C116.084 6.31984 96.8484 -3.61963 79.3606 1.42337C60.1126 6.97438 48.7542 29.0187 49.6795 54.9317C45.0088 54.8656 40.243 55.4742 35.52 56.8389C9.78866 64.2626 -5.06278 91.1437 2.35582 116.884C3.10997 119.508 4.0689 122.02 5.22049 124.403L4.01794 124.751C2.63313 129.83 2.5539 134.957 3.97185 139.885C9.99534 160.757 40.7162 170.221 72.6007 161.032C74.4979 160.489 76.3585 159.889 78.1739 159.228C90.2591 171.564 108.548 177.037 126.301 171.918C134.041 169.682 140.799 165.686 146.266 160.49C159.399 179.173 178.635 189.112 196.123 184.069C215.371 178.518 226.73 156.474 225.804 130.561C230.475 130.627 235.241 130.018 239.964 128.654C265.695 121.23 280.547 94.3487 273.128 68.6088C272.374 65.9847 271.415 63.4721 270.263 61.0899L271.466 60.7413C272.851 55.6626 272.93 50.5356 271.512 45.6072C265.488 24.7359 234.768 15.2715 202.883 24.4603Z" fill="black"/>
</svg>
