<svg width="370" height="224" viewBox="0 0 370 224" fill="none" xmlns="http://www.w3.org/2000/svg">
<rect x="6.14697" y="8.5022" width="355" height="215" fill="black" stroke="white"/>
<rect x="6.14697" y="8.5022" width="355" height="215" fill="black" stroke="white"/>
<path d="M369.147 8.5022L360.147 223.502L358.647 8.5022L357.147 219.502L365.647 3.5022" stroke="white" stroke-width="0.5"/>
<path d="M358.147 13.0022L11.647 11.5022L369.772 3.50219L7.84503 7.71091L369.647 8.50219" stroke="white" stroke-width="0.5"/>
<path d="M358.198 86.4277L13.647 85.3407L348.362 86.4183" stroke="white" stroke-width="0.94226"/>
<path d="M359.198 159.428L14.647 158.341L349.362 159.418" stroke="white" stroke-width="0.94226"/>
<path d="M359.647 223.502L13.147 219.502L357.647 214.502L16.647 217.502L357.647 219.502" stroke="white" stroke-width="0.5"/>
<path d="M9.14697 223.502L7.64747 7.23189L16.5345 217.98L11.2031 8.00222L13.1473 220.002" stroke="white" stroke-width="0.5"/>
<path d="M369.147 3.5022V8.5022" stroke="white"/>
</svg>
