<svg width="423" height="502" viewBox="0 0 423 502" fill="none" xmlns="http://www.w3.org/2000/svg">
<path d="M191.761 243.724H237.939V502H191.761V243.724Z" fill="white"/>
<path d="M1.27065 43.3414L391.018 0.907043L381.811 54.3032L412.187 102.811L406.718 154.27L398.036 200.736L422.018 266.284L49.4365 307.95L15.472 243.522L38.2132 170.324L0.711426 110.305L1.27065 43.3414Z" fill="white"/>
<path d="M195.999 240H233.999V495H195.999V240Z" fill="black"/>
<path d="M15.0196 51.2967L379.928 11.7661L372.548 62.8987L401.277 108.496L396.104 156.867L387.893 200.546L407.738 261.221L57.7377 299.089L28.4513 239.467L49.9601 170.66L14.4907 114.243L15.0196 51.2967Z" fill="black"/>
<path d="M220.568 184.743C215.315 185.268 212.163 182.618 211.113 176.793L195.863 92.1779C195.075 87.4191 195.909 83.2783 198.366 79.7555C200.977 76.2173 204.6 74.2165 209.235 73.7529C213.87 73.2894 217.818 74.5332 221.078 77.4843C224.338 80.4353 225.976 84.3289 225.991 89.165L228.031 175.102C228.155 181.019 225.667 184.233 220.568 184.743ZM224.068 236.124C219.587 236.572 215.995 235.761 213.291 233.691C210.726 231.45 209.22 228.09 208.772 223.609L208.378 219.669C207.93 215.188 208.749 211.673 210.835 209.124C213.059 206.405 216.412 204.821 220.893 204.373L223.906 204.072C228.386 203.624 231.909 204.52 234.474 206.76C237.178 208.83 238.754 212.106 239.202 216.587L239.596 220.527C240.044 225.007 239.156 228.607 236.931 231.327C234.845 233.876 231.562 235.375 227.081 235.823L224.068 236.124Z" fill="white"/>
</svg>
