<svg width="61" height="60" viewBox="0 0 61 60" fill="none" xmlns="http://www.w3.org/2000/svg">
<path d="M33.0156 6.77051C31.9816 5.01203 29.4857 4.95683 28.3604 6.60547L28.2559 6.77051L9.19922 39.1777C8.1174 41.0181 9.44426 43.3378 11.5791 43.3379L49.6924 43.3379C51.7606 43.3379 53.0707 41.1608 52.167 39.3516L52.0723 39.1777L33.0156 6.77051Z" stroke="white" stroke-width="2.76083"/>
<path d="M33.0156 53.2295C31.9816 54.988 29.4857 55.0432 28.3604 53.3945L28.2559 53.2295L9.19922 20.8223C8.1174 18.9819 9.44426 16.6622 11.5791 16.6621L49.6924 16.6621C51.7606 16.6621 53.0707 18.8392 52.167 20.6484L52.0723 20.8223L33.0156 53.2295Z" stroke="white" stroke-width="2.76083"/>
</svg>
