<svg width="307" height="290" viewBox="0 0 307 290" fill="none" xmlns="http://www.w3.org/2000/svg">
<path d="M140.32 75.52C62.83 75.52 0 148.53 0 148.53C0 148.53 62.83 221.53 140.32 221.53C217.81 221.53 280.65 148.53 280.65 148.53C280.65 148.53 217.82 75.52 140.32 75.52ZM161.66 171.18C146.98 171.18 135.07 159.27 135.07 144.59C135.07 129.91 146.98 118 161.66 118C176.34 118 188.25 129.9 188.25 144.59C188.25 159.28 176.35 171.18 161.66 171.18Z" fill="#D34137"/>
<mask id="mask0_299_583" style="mask-type:luminance" maskUnits="userSpaceOnUse" x="0" y="75" width="281" height="147">
<path d="M280.65 148.53C280.65 148.53 217.82 221.54 140.33 221.54C62.84 221.54 0 148.53 0 148.53C0 148.53 62.83 75.52 140.32 75.52C217.81 75.52 280.64 148.53 280.64 148.53H280.65Z" fill="white"/>
</mask>
<g mask="url(#mask0_299_583)">
<path d="M161.66 199.25C191.848 199.25 216.32 174.778 216.32 144.59C216.32 114.402 191.848 89.9302 161.66 89.9302C131.472 89.9302 107 114.402 107 144.59C107 174.778 131.472 199.25 161.66 199.25Z" stroke="black" stroke-width="3" stroke-miterlimit="10"/>
<path d="M161.66 225.96C206.599 225.96 243.03 189.53 243.03 144.59C243.03 99.6508 206.599 63.2202 161.66 63.2202C116.721 63.2202 80.29 99.6508 80.29 144.59C80.29 189.53 116.721 225.96 161.66 225.96Z" stroke="black" stroke-width="3" stroke-miterlimit="10"/>
<path d="M161.66 253.3C221.699 253.3 270.37 204.629 270.37 144.59C270.37 84.551 221.699 35.8799 161.66 35.8799C101.621 35.8799 52.9497 84.551 52.9497 144.59C52.9497 204.629 101.621 253.3 161.66 253.3Z" stroke="black" stroke-width="3" stroke-miterlimit="10"/>
<path d="M161.66 287.68C240.686 287.68 304.75 223.616 304.75 144.59C304.75 65.5636 240.686 1.5 161.66 1.5C82.6334 1.5 18.5698 65.5636 18.5698 144.59C18.5698 223.616 82.6334 287.68 161.66 287.68Z" stroke="black" stroke-width="3" stroke-miterlimit="10"/>
</g>
</svg>
