<svg width="72" height="42" viewBox="0 0 72 42" fill="none" xmlns="http://www.w3.org/2000/svg">
<path d="M12.3455 4.174C13.3055 3.514 13.9595 3.184 14.3075 3.184C14.6555 3.184 15.1895 3.502 15.9095 4.138C16.6415 4.762 17.0975 5.206 17.2775 5.47C17.4575 5.722 17.5475 6.058 17.5475 6.478C17.5475 7.294 17.4815 7.78 17.3495 7.936C17.0975 8.32 16.7075 8.77 16.1795 9.286C16.9115 9.982 17.3675 10.516 17.5475 10.888C17.6435 11.14 17.7455 11.908 17.8535 13.192C17.9615 14.464 18.0155 15.4 18.0155 16H15.3155C15.3155 15.46 15.2675 14.614 15.1715 13.462C15.0755 12.31 14.9675 11.614 14.8475 11.374C14.7395 11.134 14.6075 10.924 14.4515 10.744H12.8495V16H10.3655V8.116C10.3655 7.144 10.2935 6.472 10.1495 6.1C10.0175 5.716 9.72947 5.248 9.28547 4.696L11.4455 3.184C11.8295 3.436 12.1295 3.766 12.3455 4.174ZM12.8495 7.252V8.638H13.5515C13.7195 8.638 13.9355 8.506 14.1995 8.242C14.4635 7.978 14.6315 7.756 14.7035 7.576C14.7875 7.384 14.8295 7.186 14.8295 6.982C14.8295 6.778 14.7875 6.598 14.7035 6.442C14.6315 6.274 14.5235 6.088 14.3795 5.884C14.2355 5.68 14.1155 5.578 14.0195 5.578C13.6955 5.578 13.2875 5.656 12.7955 5.812C12.8315 6.28 12.8495 6.76 12.8495 7.252ZM25.9927 11.122V11.77H21.6367C21.6367 12.49 21.7267 13.06 21.9067 13.48C21.9667 13.624 22.0747 13.774 22.2307 13.93C22.3867 14.074 22.5487 14.146 22.7167 14.146C22.8847 14.146 23.0947 14.002 23.3467 13.714C23.5987 13.426 23.7967 13.078 23.9407 12.67L25.7947 13.984C25.4707 14.584 24.9727 15.106 24.3007 15.55C23.6407 15.994 23.1067 16.216 22.6987 16.216C22.2907 16.216 21.6967 15.898 20.9167 15.262C20.1487 14.626 19.6807 14.134 19.5127 13.786C19.3447 13.426 19.2607 12.55 19.2607 11.158C19.2607 9.754 19.3447 8.878 19.5127 8.53C19.6807 8.17 20.1487 7.672 20.9167 7.036C21.6967 6.4 22.2667 6.082 22.6267 6.082C22.9867 6.082 23.5507 6.4 24.3187 7.036C25.0987 7.672 25.5727 8.17 25.7407 8.53C25.9087 8.878 25.9927 9.742 25.9927 11.122ZM23.4907 8.872C23.4067 8.704 23.2687 8.542 23.0767 8.386C22.8967 8.23 22.7227 8.152 22.5547 8.152C22.3987 8.152 22.2187 8.314 22.0147 8.638C21.8107 8.95 21.6847 9.424 21.6367 10.06H23.6887C23.6527 9.424 23.5867 9.028 23.4907 8.872ZM33.6848 13.084C33.6848 13.456 33.2228 14.074 32.2988 14.938C31.3748 15.79 30.6848 16.216 30.2288 16.216C29.7848 16.216 29.2268 15.994 28.5548 15.55C27.8948 15.106 27.4028 14.584 27.0788 13.984L28.9328 12.706C29.5328 13.546 29.9708 13.966 30.2468 13.966C30.4508 13.966 30.7028 13.864 31.0028 13.66C31.3028 13.456 31.4528 13.264 31.4528 13.084C31.4528 13.036 31.3088 12.934 31.0208 12.778C30.7328 12.61 30.3788 12.406 29.9588 12.166C29.5508 11.914 29.1428 11.638 28.7348 11.338C28.3268 11.026 27.9788 10.648 27.6908 10.204C27.4028 9.76 27.2588 9.31 27.2588 8.854C27.2588 8.398 27.6668 7.822 28.4828 7.126C29.2988 6.43 29.9228 6.082 30.3548 6.082C30.7988 6.082 31.3508 6.304 32.0107 6.748C32.6828 7.192 33.1808 7.714 33.5048 8.314L31.6508 9.592C31.0508 8.752 30.6128 8.332 30.3368 8.332C30.1928 8.332 30.0128 8.416 29.7968 8.584C29.5928 8.74 29.4908 8.884 29.4908 9.016C29.4908 9.148 29.7068 9.352 30.1388 9.628C30.5828 9.904 31.0628 10.192 31.5788 10.492C32.1068 10.78 32.5868 11.164 33.0188 11.644C33.4628 12.112 33.6848 12.592 33.6848 13.084ZM37.5948 8.188V12.166C37.5948 12.73 37.7868 13.246 38.1708 13.714C38.5548 14.182 39.0828 14.554 39.7548 14.83L37.7748 16.216C37.0548 15.88 36.4488 15.418 35.9568 14.83C35.4648 14.23 35.2188 13.6 35.2188 12.94V8.188H34.3188V6.838L35.2188 6.622C35.1948 6.034 35.1228 5.572 35.0028 5.236C34.8828 4.888 34.6548 4.552 34.3188 4.228L36.2988 2.842C37.1628 3.526 37.5948 4.498 37.5948 5.758V6.298H39.6108V8.188H37.5948ZM43.6572 13.876C43.8492 14.056 43.9992 14.146 44.1072 14.146C44.2152 14.146 44.3592 14.056 44.5392 13.876C44.7312 13.696 44.8692 13.534 44.9532 13.39C45.1092 13.126 45.1872 12.382 45.1872 11.158C45.1872 9.934 45.1092 9.184 44.9532 8.908C44.8692 8.764 44.7312 8.602 44.5392 8.422C44.3592 8.242 44.2152 8.152 44.1072 8.152C43.9992 8.152 43.8492 8.242 43.6572 8.422C43.4772 8.602 43.3452 8.764 43.2612 8.908C43.1052 9.172 43.0272 9.916 43.0272 11.14C43.0272 12.364 43.1052 13.114 43.2612 13.39C43.3452 13.534 43.4772 13.696 43.6572 13.876ZM45.7272 15.334C44.9952 15.922 44.4552 16.216 44.1072 16.216C43.7592 16.216 43.2132 15.922 42.4692 15.334C41.7372 14.746 41.2872 14.308 41.1192 14.02C40.8672 13.576 40.7412 12.616 40.7412 11.14C40.7412 9.664 40.8672 8.71 41.1192 8.278C41.2872 7.99 41.7372 7.552 42.4692 6.964C43.2132 6.376 43.7592 6.082 44.1072 6.082C44.4552 6.082 44.9952 6.376 45.7272 6.964C46.4712 7.552 46.9272 7.99 47.0952 8.278C47.3472 8.71 47.4732 9.664 47.4732 11.14C47.4732 12.616 47.3472 13.576 47.0952 14.02C46.9272 14.308 46.4712 14.746 45.7272 15.334ZM51.5519 16H49.1759V9.79C49.1759 9.178 49.0979 8.704 48.9419 8.368C48.7979 8.02 48.5759 7.72 48.2759 7.468L50.2559 6.082C50.6879 6.442 51.0179 6.862 51.2459 7.342C52.1339 6.502 52.7579 6.082 53.1179 6.082C53.3579 6.082 53.7239 6.304 54.2159 6.748C54.7079 7.192 54.9959 7.678 55.0799 8.206L53.1539 9.592C53.1419 9.304 53.0699 9.022 52.9379 8.746C52.8179 8.47 52.7099 8.332 52.6139 8.332C52.4099 8.332 52.0559 8.584 51.5519 9.088V16ZM62.1685 11.122V11.77H57.8125C57.8125 12.49 57.9025 13.06 58.0825 13.48C58.1425 13.624 58.2505 13.774 58.4065 13.93C58.5625 14.074 58.7245 14.146 58.8925 14.146C59.0605 14.146 59.2705 14.002 59.5225 13.714C59.7745 13.426 59.9725 13.078 60.1165 12.67L61.9705 13.984C61.6465 14.584 61.1485 15.106 60.4765 15.55C59.8165 15.994 59.2825 16.216 58.8745 16.216C58.4665 16.216 57.8725 15.898 57.0925 15.262C56.3245 14.626 55.8565 14.134 55.6885 13.786C55.5205 13.426 55.4365 12.55 55.4365 11.158C55.4365 9.754 55.5205 8.878 55.6885 8.53C55.8565 8.17 56.3245 7.672 57.0925 7.036C57.8725 6.4 58.4425 6.082 58.8025 6.082C59.1625 6.082 59.7265 6.4 60.4945 7.036C61.2745 7.672 61.7485 8.17 61.9165 8.53C62.0845 8.878 62.1685 9.742 62.1685 11.122ZM59.6665 8.872C59.5825 8.704 59.4445 8.542 59.2525 8.386C59.0725 8.23 58.8985 8.152 58.7305 8.152C58.5745 8.152 58.3945 8.314 58.1905 8.638C57.9865 8.95 57.8605 9.424 57.8125 10.06H59.8645C59.8285 9.424 59.7625 9.028 59.6665 8.872ZM4.65947 30.898H5.01947C5.24747 30.898 5.51147 30.79 5.81147 30.574C6.12347 30.346 6.32147 30.1 6.40547 29.836C6.48947 29.572 6.53147 29.218 6.53147 28.774C6.53147 28.33 6.48947 27.964 6.40547 27.676C6.32147 27.376 6.12347 27.118 5.81147 26.902C5.51147 26.686 5.21747 26.578 4.92947 26.578C4.65347 26.578 4.27547 26.734 3.79547 27.046C3.83147 27.442 3.84947 27.844 3.84947 28.252V37H1.36547V29.296C1.36547 28.288 1.29347 27.58 1.14947 27.172C1.01747 26.752 0.729469 26.266 0.285469 25.714L2.44547 24.184C2.75747 24.4 3.03347 24.754 3.27347 25.246C4.25747 24.538 4.95947 24.184 5.37947 24.184C5.79947 24.184 6.38147 24.52 7.12547 25.192C7.86947 25.864 8.37347 26.428 8.63747 26.884C8.76947 27.052 8.83547 27.634 8.83547 28.63C8.83547 29.626 8.76947 30.256 8.63747 30.52C8.37347 30.976 7.86947 31.54 7.12547 32.212C6.38147 32.884 5.79947 33.22 5.37947 33.22H4.65947V30.898ZM10.0013 27.298H12.3773V33.994C12.3773 34.198 12.4733 34.414 12.6653 34.642C12.8573 34.858 13.0373 34.966 13.2053 34.966C13.3733 34.966 13.7213 34.72 14.2493 34.228V27.298H16.6253V37H14.7893L14.5732 35.938C13.6733 36.79 13.0433 37.216 12.6833 37.216C12.3233 37.216 11.7833 36.886 11.0633 36.226C10.3553 35.554 10.0013 34.894 10.0013 34.246V27.298ZM21.1593 37H18.7833V30.79C18.7833 30.178 18.7053 29.704 18.5493 29.368C18.4053 29.02 18.1833 28.72 17.8833 28.468L19.8633 27.082C20.2953 27.442 20.6253 27.862 20.8533 28.342C21.7413 27.502 22.3653 27.082 22.7253 27.082C22.9653 27.082 23.3313 27.304 23.8233 27.748C24.3153 28.192 24.6033 28.678 24.6873 29.206L22.7613 30.592C22.7493 30.304 22.6773 30.022 22.5453 29.746C22.4253 29.47 22.3173 29.332 22.2213 29.332C22.0173 29.332 21.6633 29.584 21.1593 30.088V37ZM25.4219 35.02C25.1699 34.624 25.0439 33.67 25.0439 32.158C25.0439 30.646 25.1699 29.686 25.4219 29.278C25.6019 28.978 26.0459 28.54 26.7539 27.964C27.4619 27.376 28.0079 27.082 28.3919 27.082C28.7879 27.082 29.3159 27.316 29.9759 27.784C30.6479 28.24 31.1519 28.762 31.4879 29.35L29.6339 30.628C29.4779 30.34 29.2619 30.022 28.9859 29.674C28.7219 29.326 28.5239 29.152 28.3919 29.152C28.1519 29.152 27.8759 29.404 27.5639 29.908C27.4079 30.22 27.3299 30.97 27.3299 32.158C27.3299 33.334 27.4079 34.078 27.5639 34.39C27.6599 34.546 27.7859 34.714 27.9419 34.894C28.0979 35.062 28.2539 35.146 28.4099 35.146C28.5659 35.146 28.7699 35.008 29.0219 34.732C29.2739 34.456 29.4779 34.102 29.6339 33.67L31.4879 34.966C31.1639 35.566 30.6659 36.094 29.9939 36.55C29.3339 36.994 28.8059 37.216 28.4099 37.216C28.0139 37.216 27.4619 36.928 26.7539 36.352C26.0459 35.764 25.6019 35.32 25.4219 35.02ZM35.2394 37H32.8634V27.172C32.8634 26.56 32.7914 26.092 32.6474 25.768C32.5034 25.444 32.2754 25.15 31.9634 24.886L33.9434 23.5C34.8074 24.184 35.2394 25.15 35.2394 26.398V28.072C35.9834 27.412 36.5234 27.082 36.8594 27.082C37.1954 27.082 37.7294 27.418 38.4614 28.09C39.2054 28.75 39.5774 29.404 39.5774 30.052V33.526C39.5774 34.138 39.6494 34.612 39.7934 34.948C39.9374 35.284 40.1654 35.578 40.4774 35.83L38.4974 37.216C37.6334 36.532 37.2014 35.56 37.2014 34.3V30.304C37.2014 30.1 37.0934 29.89 36.8774 29.674C36.6614 29.446 36.4574 29.332 36.2654 29.332C36.0854 29.332 35.7434 29.584 35.2394 30.088V37ZM48.1261 27.298V34.678C48.1981 35.098 48.4801 35.47 48.9721 35.794L47.3521 37.18C47.1961 37.072 47.0041 36.88 46.7761 36.604C46.5481 36.328 46.3561 36.046 46.2001 35.758C45.2041 36.73 44.5081 37.216 44.1121 37.216C43.8241 37.216 43.3561 36.898 42.7081 36.262C42.0721 35.626 41.6761 35.11 41.5201 34.714C41.3641 34.318 41.2861 33.466 41.2861 32.158C41.2861 30.838 41.3641 29.98 41.5201 29.584C41.6761 29.188 42.0721 28.672 42.7081 28.036C43.3561 27.4 43.8241 27.082 44.1121 27.082C44.5321 27.082 45.2101 27.514 46.1461 28.378L46.3621 27.298H48.1261ZM45.6241 30.052C45.5401 29.896 45.3661 29.74 45.1021 29.584C44.8501 29.416 44.6581 29.332 44.5261 29.332C44.3941 29.332 44.2501 29.41 44.0941 29.566C43.9501 29.722 43.8541 29.866 43.8061 29.998C43.6501 30.214 43.5721 30.934 43.5721 32.158C43.5721 33.37 43.6501 34.084 43.8061 34.3C43.8541 34.42 43.9501 34.564 44.0941 34.732C44.2501 34.888 44.3941 34.966 44.5261 34.966C44.6581 34.966 44.8501 34.888 45.1021 34.732C45.3661 34.564 45.5341 34.414 45.6061 34.282C45.6901 34.15 45.7381 33.448 45.7501 32.176C45.7501 30.904 45.7081 30.196 45.6241 30.052ZM56.2023 34.084C56.2023 34.456 55.7403 35.074 54.8163 35.938C53.8923 36.79 53.2023 37.216 52.7463 37.216C52.3023 37.216 51.7443 36.994 51.0723 36.55C50.4123 36.106 49.9203 35.584 49.5963 34.984L51.4503 33.706C52.0503 34.546 52.4883 34.966 52.7643 34.966C52.9683 34.966 53.2203 34.864 53.5203 34.66C53.8203 34.456 53.9703 34.264 53.9703 34.084C53.9703 34.036 53.8263 33.934 53.5383 33.778C53.2503 33.61 52.8963 33.406 52.4763 33.166C52.0683 32.914 51.6603 32.638 51.2523 32.338C50.8443 32.026 50.4963 31.648 50.2083 31.204C49.9203 30.76 49.7763 30.31 49.7763 29.854C49.7763 29.398 50.1843 28.822 51.0003 28.126C51.8163 27.43 52.4403 27.082 52.8723 27.082C53.3163 27.082 53.8683 27.304 54.5283 27.748C55.2003 28.192 55.6983 28.714 56.0223 29.314L54.1683 30.592C53.5683 29.752 53.1303 29.332 52.8543 29.332C52.7103 29.332 52.5303 29.416 52.3143 29.584C52.1103 29.74 52.0083 29.884 52.0083 30.016C52.0083 30.148 52.2243 30.352 52.6563 30.628C53.1003 30.904 53.5803 31.192 54.0963 31.492C54.6243 31.78 55.1043 32.164 55.5363 32.644C55.9803 33.112 56.2023 33.592 56.2023 34.084ZM63.8384 32.122V32.77H59.4824C59.4824 33.49 59.5724 34.06 59.7524 34.48C59.8124 34.624 59.9204 34.774 60.0764 34.93C60.2324 35.074 60.3944 35.146 60.5624 35.146C60.7304 35.146 60.9404 35.002 61.1924 34.714C61.4444 34.426 61.6424 34.078 61.7864 33.67L63.6404 34.984C63.3164 35.584 62.8184 36.106 62.1464 36.55C61.4864 36.994 60.9524 37.216 60.5444 37.216C60.1364 37.216 59.5424 36.898 58.7624 36.262C57.9944 35.626 57.5264 35.134 57.3584 34.786C57.1904 34.426 57.1064 33.55 57.1064 32.158C57.1064 30.754 57.1904 29.878 57.3584 29.53C57.5264 29.17 57.9944 28.672 58.7624 28.036C59.5424 27.4 60.1124 27.082 60.4724 27.082C60.8324 27.082 61.3964 27.4 62.1644 28.036C62.9444 28.672 63.4184 29.17 63.5864 29.53C63.7544 29.878 63.8384 30.742 63.8384 32.122ZM61.3364 29.872C61.2524 29.704 61.1144 29.542 60.9224 29.386C60.7424 29.23 60.5684 29.152 60.4004 29.152C60.2444 29.152 60.0644 29.314 59.8604 29.638C59.6564 29.95 59.5304 30.424 59.4824 31.06H61.5344C61.4984 30.424 61.4324 30.028 61.3364 29.872ZM71.5305 34.084C71.5305 34.456 71.0685 35.074 70.1445 35.938C69.2205 36.79 68.5305 37.216 68.0745 37.216C67.6305 37.216 67.0725 36.994 66.4005 36.55C65.7405 36.106 65.2485 35.584 64.9245 34.984L66.7785 33.706C67.3785 34.546 67.8165 34.966 68.0925 34.966C68.2965 34.966 68.5485 34.864 68.8485 34.66C69.1485 34.456 69.2985 34.264 69.2985 34.084C69.2985 34.036 69.1545 33.934 68.8665 33.778C68.5785 33.61 68.2245 33.406 67.8045 33.166C67.3965 32.914 66.9885 32.638 66.5805 32.338C66.1725 32.026 65.8245 31.648 65.5365 31.204C65.2485 30.76 65.1045 30.31 65.1045 29.854C65.1045 29.398 65.5125 28.822 66.3285 28.126C67.1445 27.43 67.7685 27.082 68.2005 27.082C68.6445 27.082 69.1965 27.304 69.8565 27.748C70.5285 28.192 71.0265 28.714 71.3505 29.314L69.4965 30.592C68.8965 29.752 68.4585 29.332 68.1825 29.332C68.0385 29.332 67.8585 29.416 67.6425 29.584C67.4385 29.74 67.3365 29.884 67.3365 30.016C67.3365 30.148 67.5525 30.352 67.9845 30.628C68.4285 30.904 68.9085 31.192 69.4245 31.492C69.9525 31.78 70.4325 32.164 70.8645 32.644C71.3085 33.112 71.5305 33.592 71.5305 34.084Z" fill="white"/>
</svg>
