<?xml version="1.0" encoding="UTF-8"?>
<svg id="Camada_2" data-name="Camada 2" xmlns="http://www.w3.org/2000/svg" viewBox="0 0 448.1 397.1">
  <defs>
    <style>
      .cls-1 {
        fill: #877d79;
      }

      .cls-2 {
        fill: #3b5353;
      }

      .cls-3 {
        fill: #bb5696;
      }

      .cls-4 {
        fill: #34302d;
      }

      .cls-5 {
        fill: #dfc8f6;
      }

      .cls-6 {
        fill: #b3b3b3;
      }

      .cls-7 {
        fill: none;
        stroke: #34302d;
        stroke-linecap: round;
        stroke-miterlimit: 10;
        stroke-width: 3px;
      }

      .cls-8 {
        fill: #999;
      }
    </style>
  </defs>
  <g id="Camada_1-2" data-name="Camada 1">
    <g>
      <g>
        <path class="cls-2" d="M348.21,344.8c0,18.37-13.5,34.34-29.91,41.13-2.81,1.16-10.46,4.24-20.5,3.88-21.47-.78-50.41-17.16-50.41-45,0-24.85,22.57-45,50.41-45s50.41,20.15,50.41,45Z"/>
        <circle class="cls-2" cx="158.94" cy="345.96" r="51.15"/>
        <circle class="cls-2" cx="102.4" cy="191.73" r="54.84"/>
        <ellipse class="cls-2" cx="50.15" cy="221.25" rx="35.78" ry="28.01"/>
        <path class="cls-2" d="M443.73,230.47c.94,22.83-27.03,41.23-53.75,39.43-21.98-1.48-45-16.76-45-37.96,0-21.18,22.98-36.37,45-37.96,25.69-1.86,52.85,14.58,53.75,36.5Z"/>
        <ellipse class="cls-2" cx="392.09" cy="274.28" rx="35.28" ry="45" transform="translate(43.1 601.64) rotate(-78.14)"/>
        <ellipse class="cls-2" cx="394.36" cy="203.28" rx="45" ry="26.5" transform="translate(-28.78 69.87) rotate(-9.77)"/>
        <ellipse class="cls-2" cx="353.25" cy="323.71" rx="43.05" ry="45" transform="translate(-115.52 422.87) rotate(-54.44)"/>
        <ellipse class="cls-2" cx="376.48" cy="196.71" rx="41.96" ry="35.33"/>
        <ellipse class="cls-2" cx="388.88" cy="173.84" rx="41.96" ry="28.92"/>
        <ellipse class="cls-2" cx="59.86" cy="268.37" rx="45.34" ry="36.21"/>
        <ellipse class="cls-2" cx="67.87" cy="318.8" rx="43.17" ry="35.32" transform="translate(-70.7 23.78) rotate(-13.14)"/>
        <circle class="cls-2" cx="114.66" cy="337.02" r="51.15"/>
        <circle class="cls-2" cx="355.25" cy="287.5" r="30.82"/>
        <ellipse class="cls-2" cx="67.87" cy="174.14" rx="26.5" ry="45" transform="translate(-115.19 211.83) rotate(-80.34)"/>
      </g>
      <circle class="cls-2" cx="69.21" cy="203.28" r="54.84"/>
    </g>
    <polygon class="cls-6" points="303.24 341.92 185.28 351.82 246.79 231.67 303.24 341.92"/>
    <path class="cls-8" d="M237.24,309.05c-3.71.51-7.41,1.04-11.08,1.58.33-.54.66-1.08.99-1.63,1.79-2.96,3.65-6.01,5.55-9.15,1.26,2.68,2.65,5.5,4.15,8.44.13.25.25.5.39.76Z"/>
    <path class="cls-5" d="M355.25,262.34c0,70.63-60.9,111.25-134.65,111.25s-132.4-40.62-132.4-111.25,10.23-144.53,132.4-144.53,134.65,73.9,134.65,144.53Z"/>
    <path class="cls-7" d="M249.39,332.8c-12.3-.06-26.1.57-41.08,2.4-11.45,1.4-22.01,3.31-31.61,5.46"/>
    <ellipse class="cls-3" cx="151.33" cy="322.23" rx="18.42" ry="23.12" transform="translate(-176.92 460) rotate(-87.61)"/>
    <ellipse class="cls-3" cx="277.61" cy="320.56" rx="18.42" ry="23.12" transform="translate(-54.24 584.57) rotate(-87.61)"/>
    <path class="cls-3" d="M210.64,313.4c-12.77,0-23.12-8.25-23.12-18.42s10.35-18.42,23.12-18.42"/>
    <g>
      <circle class="cls-2" cx="394.72" cy="243.45" r="30.82"/>
      <circle class="cls-2" cx="391.91" cy="280.14" r="30.82"/>
      <g>
        <ellipse class="cls-2" cx="86.8" cy="214.92" rx="28.72" ry="38.93" transform="translate(-144.51 200.11) rotate(-64.34)"/>
        <ellipse class="cls-2" cx="93.14" cy="184.02" rx="28.72" ry="38.93" transform="translate(-113.07 188.3) rotate(-64.34)"/>
        <circle class="cls-2" cx="130.21" cy="186.2" r="30.82"/>
        <circle class="cls-2" cx="320.91" cy="183" r="30.82"/>
        <circle class="cls-2" cx="277.61" cy="167.42" r="30.82"/>
        <circle class="cls-2" cx="363.9" cy="208.18" r="30.82"/>
        <circle class="cls-2" cx="363.9" cy="188.74" r="30.82"/>
        <circle class="cls-2" cx="68.18" cy="253.84" r="30.82"/>
      </g>
      <circle class="cls-2" cx="66.62" cy="280.19" r="24.83"/>
    </g>
    <g>
      <path class="cls-5" d="M331.28,235.18c5.43-9.32,14.05-15.57,24.09-16.22,18.09-1.17,33.95,16.29,35.42,39,1.47,22.71-12.01,42.07-30.1,43.24-3.54.23-6.99-.25-10.27-1.35"/>
      <path class="cls-7" d="M345.02,247.44c8.11-5.51,19.16-3.4,24.67,4.72s3.4,19.16-4.72,24.67"/>
    </g>
    <g>
      <ellipse class="cls-1" cx="224.05" cy="152.22" rx="224.05" ry="42.83"/>
      <path class="cls-7" d="M88.52,161.65c-16.64-3.1-29.41-6.77-37.07-10.81"/>
      <path class="cls-7" d="M360.75,161.43c-6.45,1.22-13.5,2.36-21.08,3.4"/>
      <path class="cls-7" d="M358.47,124.5c7.23,1.32,13.74,2.75,19.45,4.27"/>
      <g>
        <g>
          <path class="cls-1" d="M290.63,138.31c2.88-.87,5.61-1.76,8.19-2.64,9.02-3.1,12.81-12.77,7.99-20.33-23.06-36.08-46.12-72.17-69.17-108.25-6.04-9.45-21.13-9.45-27.17,0l-69.18,108.26c-4.81,7.53-1.07,17.2,7.93,20.3,10.02,3.46,22.28,6.89,36.44,9.28"/>
          <path class="cls-7" d="M290.63,138.31c2.88-.87,5.61-1.76,8.19-2.64,5.9-2.03,9.57-6.87,10.04-12.09"/>
        </g>
        <path class="cls-7" d="M139.3,124.21c.7,4.97,4.27,9.5,9.91,11.44,10.02,3.46,22.28,6.89,36.44,9.28"/>
      </g>
    </g>
    <rect class="cls-4" x="128.24" y="216.61" width="74.75" height="17.29" rx="6.35" ry="6.35"/>
    <rect class="cls-4" x="221.6" y="214.27" width="74.75" height="17.29" rx="6.35" ry="6.35" transform="translate(-5.52 6.58) rotate(-1.44)"/>
    <ellipse class="cls-4" cx="168.17" cy="260.09" rx="16.83" ry="34.72"/>
    <ellipse class="cls-4" cx="252.46" cy="260.09" rx="16.83" ry="34.72"/>
    <path class="cls-7" d="M245.89,297.59c2.26.59,9.77,2.23,18.18-1.39,8.47-3.65,12.43-10.3,13.54-12.35"/>
    <path class="cls-7" d="M176.89,297.59c-2.26.59-9.77,2.23-18.18-1.39-8.47-3.65-12.43-10.3-13.54-12.35"/>
  </g>
</svg>