<svg width="449" height="458" viewBox="0 0 449 458" fill="none" xmlns="http://www.w3.org/2000/svg">
<g clip-path="url(#clip0_1_54)">
<path d="M210.415 434.883C211.387 432.052 209.14 428.714 205.395 427.428C201.65 426.141 197.825 427.393 196.853 430.224C195.88 433.055 198.128 436.393 201.873 437.679C205.618 438.966 209.442 437.714 210.415 434.883Z" fill="#473F3A"/>
<path d="M196.998 432.796C197.97 429.965 195.723 426.627 191.978 425.34C188.233 424.054 184.409 425.306 183.436 428.137C182.463 430.968 184.711 434.306 188.456 435.592C192.201 436.879 196.025 435.627 196.998 432.796Z" fill="#473F3A"/>
<path d="M184.613 426.755C185.585 423.924 183.338 420.586 179.593 419.3C175.848 418.013 172.023 419.265 171.051 422.096C170.078 424.927 172.326 428.265 176.071 429.551C179.816 430.838 183.64 429.586 184.613 426.755Z" fill="#473F3A"/>
<path d="M168.38 420.21C173.62 423.53 180.55 427.13 189.12 429.73C198.77 432.66 207.46 433.39 214.17 433.36C215.78 433.36 217.01 431.93 216.79 430.34L216.36 427.19C216.22 427.21 216.08 427.23 215.93 427.23C209.22 427.27 200.53 426.53 190.88 423.6C182.32 421 175.38 417.4 170.14 414.08C170.01 414 169.9 413.91 169.79 413.82L167.75 416.26C166.72 417.5 167.01 419.35 168.38 420.22V420.21Z" fill="#473F3A"/>
<path d="M169.79 413.82C169.9 413.91 170.02 414 170.14 414.08C175.38 417.4 182.31 421 190.88 423.6C200.53 426.53 209.22 427.26 215.93 427.23C216.08 427.23 216.22 427.22 216.36 427.19L210.12 381.79C209.33 376.06 202.89 374.21 199.18 378.65L169.8 413.82H169.79Z" fill="#473F3A"/>
<path d="M230.52 457.41H259.18C260.94 457.41 262.12 455.59 261.38 453.98L253.82 437.43C253.17 436 251.35 435.56 250.12 436.53L229.01 453.08C227.2 454.5 228.2 457.41 230.51 457.41H230.52Z" fill="#473F3A"/>
<path d="M192.78 457.41H221.44C223.2 457.41 224.38 455.59 223.64 453.98L216.08 437.43C215.43 436 213.61 435.56 212.38 436.53L191.27 453.08C189.46 454.5 190.46 457.41 192.77 457.41H192.78Z" fill="#473F3A"/>
<path d="M265.08 426.81C264.8 427.22 264.02 427.47 263.52 427.13C263.39 427.06 263.26 426.92 263.19 426.88C262.88 426.7 262.51 426.56 262.15 426.43C261.35 426.17 260.59 425.92 259.72 425.88C256.16 425.59 254.61 428.84 250.82 428.36C247.5 428.01 246.43 425.29 242.45 425.95C239.64 426.45 238.4 428.68 235.15 428.37C231.71 428.13 230.52 425.18 226.44 425.97C224.81 426.23 223.6 427.36 222.09 427.96C221.37 428.24 220.6 428.37 219.83 428.38C218.22 428.43 216.72 427.77 215.4 426.88C213.5 425.78 211.27 425.45 209.14 426.41C208.14 426.85 207.35 427.5 206.32 427.91C204.93 428.48 203.33 428.54 201.89 428.09C200.18 427.55 199.01 426.29 197.24 425.98C196.13 425.76 194.95 425.85 193.88 426.23C192.55 426.86 190.78 427.33 189.57 426.2C189.15 425.78 189.41 425.51 189.65 425.06C190.19 424.03 190.54 422.91 190.99 421.84C191.67 420.36 192.26 419.09 192.96 417.27C194.32 413.83 195.73 410 197.23 406.46C200.15 398.92 208.31 384.97 209.89 382.7C211.57 380.1 213.44 376.74 214.68 373.63C214.83 373.01 214.87 372.44 215.18 371.9C215.59 371.08 216.51 370.71 217.43 370.66C223.32 370.1 229.25 369.68 235.15 369.17C237.26 369.09 239.64 368.2 239.83 371.2C239.93 372.24 240.03 373.69 240.69 374.44C241.14 375.02 241.67 375.5 242.19 376.03C243.01 376.86 243.87 378.02 244.45 378.96C249.99 390.56 253.56 397.83 256.99 404.42C258.31 406.99 260.14 410.72 261.09 413.83C261.42 415.12 263.71 421.71 264.73 424.06C264.87 424.49 265.1 424.85 265.32 425.24C265.54 425.73 265.37 426.39 265.05 426.79L265.03 426.82L265.08 426.81Z" fill="#667E80"/>
<path d="M241.93 375.76C237 377.64 231.16 378.62 224.94 378.62C220.72 378.62 216.71 378.17 213.05 377.29C213.3 376.79 213.57 376.26 213.83 375.7C214.09 375.32 214.22 374.94 214.4 374.46C214.53 374.11 214.75 373.77 214.79 373.39C214.8 373.3 214.82 373.21 214.83 373.12C214.84 373.03 214.86 372.95 214.88 372.86C214.89 372.79 214.91 372.73 214.93 372.66C214.94 372.61 214.96 372.57 214.97 372.52C215 372.41 215.04 372.3 215.08 372.19C215.09 372.16 215.1 372.13 215.12 372.1C215.12 372.09 215.12 372.08 215.13 372.07C220.9 371.52 226.69 371.12 232.49 370.61C234.23 370.47 236.01 370.32 237.76 370.17C238.35 370.13 238.98 370.05 239.61 370.02C239.63 370.07 239.64 370.11 239.66 370.16C239.67 370.2 239.68 370.23 239.69 370.27C239.69 370.29 239.7 370.31 239.71 370.34C239.76 370.52 239.8 370.71 239.82 370.9C239.82 370.92 239.82 370.94 239.82 370.95C239.82 371.03 239.84 371.11 239.85 371.19C239.85 371.19 239.85 371.19 239.85 371.2C239.88 371.5 239.91 371.8 239.93 372.08C239.94 372.18 239.95 372.28 239.97 372.38C240.09 373.39 240.36 374.01 240.71 374.44C240.95 374.74 241.21 375.02 241.47 375.28C241.52 375.33 241.57 375.39 241.62 375.44C241.72 375.54 241.82 375.64 241.93 375.74V375.76Z" fill="#34302D"/>
<path d="M265.03 426.83C264.94 426.93 264.52 427.37 263.96 427.32C263.56 427.28 263.29 427 263.18 426.88C263.18 426.88 262.55 426.5 261.45 426.21C260.74 426.03 259.84 425.89 258.79 425.91C258.53 425.91 258.3 425.93 258.1 425.96C257.51 426.04 257.12 426.2 256.65 426.47C256.13 426.76 255.52 427.17 254.44 427.71C253.61 428.12 252.69 428.35 251.77 428.38C251.72 428.38 251.67 428.38 251.62 428.38C251.6 428.38 251.58 428.38 251.56 428.38C250.65 428.38 249.73 428.19 248.89 427.81C248.25 427.53 247.67 427.16 247.07 426.83C247.04 426.82 247.02 426.8 246.99 426.79C246.62 426.59 246.24 426.4 245.83 426.26C244.34 425.72 242.62 425.75 241.16 426.35C240.18 426.79 239.4 427.28 238.62 427.66C238.62 427.66 238.61 427.66 238.6 427.66C238.26 427.82 237.93 427.97 237.57 428.09C237.54 428.09 237.52 428.11 237.49 428.11C236.9 428.29 236.26 428.39 235.49 428.37C235.44 428.37 235.4 428.37 235.35 428.37C235.22 428.37 235.07 428.35 234.93 428.34C234.89 428.34 234.84 428.34 234.8 428.33C234.58 428.31 234.36 428.27 234.15 428.21C233.47 428.04 232.85 427.75 232.23 427.42C230.97 426.75 229.75 425.96 228.23 425.89C226.08 425.73 224.91 426.5 223.45 427.29C223.45 427.29 223.44 427.29 223.43 427.3C222.99 427.54 222.52 427.78 221.98 428C221.37 428.22 220.73 428.34 220.08 428.37C220.04 428.37 220 428.37 219.96 428.37C219.91 428.37 219.86 428.37 219.8 428.37C219.71 428.37 219.62 428.37 219.53 428.37C219.47 428.37 219.41 428.37 219.34 428.36C219.32 428.36 219.3 428.36 219.29 428.36C218.57 428.31 217.85 428.14 217.19 427.86C216.18 427.44 215.25 426.7 214.21 426.33C212.67 425.73 211.02 425.7 209.46 426.31C209.11 426.44 208.77 426.61 208.46 426.78C208.45 426.78 208.44 426.79 208.43 426.8C207.73 427.18 207.07 427.61 206.3 427.92C205.58 428.21 204.8 428.36 204.02 428.38C203.98 428.38 203.94 428.38 203.9 428.38C203.2 428.38 202.51 428.28 201.85 428.06C198.61 426.81 198.12 425.21 194.19 426.33C193.81 426.41 193.44 426.52 193.07 426.61C192.32 426.8 191.59 426.94 190.8 426.78C190.69 426.76 190.58 426.73 190.47 426.69C190.38 426.66 190.29 426.62 190.21 426.57C190.19 426.56 190.17 426.55 190.15 426.54C189.81 426.35 189.52 426.07 189.38 425.76C189.38 425.76 189.38 425.76 189.38 425.75C189.33 425.64 189.3 425.52 189.3 425.4C189.29 424.76 189.67 424.21 190.01 423.53C190.3 422.98 190.59 422.51 190.98 422.13C191.25 421.86 191.57 421.62 191.97 421.42C192.99 420.79 194.08 420.24 195.29 420.12C198.37 419.75 199.54 421.52 202.13 422.33C203.58 422.74 205.16 422.62 206.54 422.01C207.57 421.56 208.42 420.9 209.51 420.49C211.72 419.59 214.1 420.18 216.04 421.44C217.83 422.58 220.14 422.92 222.13 422.14C223.3 421.69 224.29 420.89 225.46 420.46C226.58 420.04 227.85 419.94 229.02 420.18C230.59 420.47 231.85 421.53 233.31 422.12C234.81 422.7 236.54 422.71 238.04 422.12C239.11 421.7 240.04 420.99 241.11 420.55C241.86 420.24 242.65 420.07 243.46 420.05C244.33 420.03 245.19 420.18 246 420.5C247.16 420.95 248.07 421.69 249.22 422.13C250.62 422.67 252.19 422.72 253.62 422.23C254.59 421.9 255.48 421.33 256.35 420.87C258.22 419.78 260.75 419.82 262.62 420.9C263.2 421.23 263.58 421.54 263.71 421.67C263.77 421.72 263.83 421.78 263.88 421.84C264.82 422.8 265.39 424.15 265.46 425.26C265.5 425.91 265.37 426.47 265.05 426.83H265.03Z" fill="#EFEAE6" stroke="#34302D" stroke-miterlimit="10"/>
<path d="M348.21 344.8C348.21 363.17 334.71 379.14 318.3 385.93C315.49 387.09 307.84 390.17 297.8 389.81C276.33 389.03 247.39 372.65 247.39 344.81C247.39 319.96 269.96 299.81 297.8 299.81C325.64 299.81 348.21 319.96 348.21 344.81V344.8Z" fill="#3B5353"/>
<path d="M158.94 397.11C187.189 397.11 210.09 374.209 210.09 345.96C210.09 317.711 187.189 294.81 158.94 294.81C130.691 294.81 107.79 317.711 107.79 345.96C107.79 374.209 130.691 397.11 158.94 397.11Z" fill="#3B5353"/>
<path d="M102.4 246.57C132.687 246.57 157.24 222.017 157.24 191.73C157.24 161.443 132.687 136.89 102.4 136.89C72.1127 136.89 47.56 161.443 47.56 191.73C47.56 222.017 72.1127 246.57 102.4 246.57Z" fill="#3B5353"/>
<path d="M50.15 249.26C69.9107 249.26 85.93 236.719 85.93 221.25C85.93 205.78 69.9107 193.24 50.15 193.24C30.3892 193.24 14.37 205.78 14.37 221.25C14.37 236.719 30.3892 249.26 50.15 249.26Z" fill="#3B5353"/>
<path d="M443.73 230.47C444.67 253.3 416.7 271.7 389.98 269.9C368 268.42 344.98 253.14 344.98 231.94C344.98 210.76 367.96 195.57 389.98 193.98C415.67 192.12 442.83 208.56 443.73 230.48V230.47Z" fill="#3B5353"/>
<path d="M436.147 283.539C440.151 264.47 423.681 244.871 399.358 239.763C375.036 234.656 352.073 245.973 348.068 265.042C344.064 284.111 360.535 303.709 384.857 308.817C409.179 313.925 432.142 302.607 436.147 283.539Z" fill="#3B5353"/>
<path d="M398.853 229.397C423.345 225.18 441.187 210.069 438.703 195.645C436.22 181.222 414.351 172.948 389.859 177.166C365.367 181.383 347.525 196.494 350.008 210.918C352.492 225.341 374.36 233.614 398.853 229.397Z" fill="#3B5353"/>
<path d="M389.863 349.924C403.69 330.582 398.509 303.186 378.291 288.732C358.073 274.279 330.474 278.242 316.647 297.584C302.82 316.926 308.001 344.322 328.219 358.775C348.437 373.229 376.036 369.266 389.863 349.924Z" fill="#3B5353"/>
<path d="M376.48 232.04C399.654 232.04 418.44 216.222 418.44 196.71C418.44 177.198 399.654 161.38 376.48 161.38C353.306 161.38 334.52 177.198 334.52 196.71C334.52 216.222 353.306 232.04 376.48 232.04Z" fill="#3B5353"/>
<path d="M388.88 202.76C412.054 202.76 430.84 189.812 430.84 173.84C430.84 157.868 412.054 144.92 388.88 144.92C365.706 144.92 346.92 157.868 346.92 173.84C346.92 189.812 365.706 202.76 388.88 202.76Z" fill="#3B5353"/>
<path d="M59.86 304.58C84.9006 304.58 105.2 288.368 105.2 268.37C105.2 248.372 84.9006 232.16 59.86 232.16C34.8194 232.16 14.52 248.372 14.52 268.37C14.52 288.368 34.8194 304.58 59.86 304.58Z" fill="#3B5353"/>
<path d="M75.8955 353.199C99.1134 347.779 114.34 327.986 109.906 308.99C105.471 289.994 83.0547 278.989 59.8369 284.409C36.619 289.829 21.392 309.622 25.8265 328.618C30.261 347.614 52.6776 358.619 75.8955 353.199Z" fill="#3B5353"/>
<path d="M114.66 388.17C142.909 388.17 165.81 365.269 165.81 337.02C165.81 308.771 142.909 285.87 114.66 285.87C86.4107 285.87 63.51 308.771 63.51 337.02C63.51 365.269 86.4107 388.17 114.66 388.17Z" fill="#3B5353"/>
<path d="M355.25 318.32C372.271 318.32 386.07 304.521 386.07 287.5C386.07 270.479 372.271 256.68 355.25 256.68C338.229 256.68 324.43 270.479 324.43 287.5C324.43 304.521 338.229 318.32 355.25 318.32Z" fill="#3B5353"/>
<path d="M112.231 181.694C114.687 167.266 96.8166 152.189 72.3162 148.019C47.8158 143.849 25.9634 152.164 23.5076 166.592C21.0517 181.02 38.9223 196.097 63.4228 200.267C87.9232 204.438 109.776 196.122 112.231 181.694Z" fill="#3B5353"/>
<path d="M69.21 258.12C99.4973 258.12 124.05 233.567 124.05 203.28C124.05 172.993 99.4973 148.44 69.21 148.44C38.9227 148.44 14.37 172.993 14.37 203.28C14.37 233.567 38.9227 258.12 69.21 258.12Z" fill="#3B5353"/>
<path d="M303.24 341.92L185.28 351.82L246.79 231.67L303.24 341.92Z" fill="#B3B3B3"/>
<path d="M237.24 309.05C233.53 309.56 229.83 310.09 226.16 310.63C226.49 310.09 226.82 309.55 227.15 309C228.94 306.04 230.8 302.99 232.7 299.85C233.96 302.53 235.35 305.35 236.85 308.29C236.98 308.54 237.1 308.79 237.24 309.05Z" fill="#999999"/>
<path d="M355.25 262.34C355.25 332.97 294.35 373.59 220.6 373.59C146.85 373.59 88.2 332.97 88.2 262.34C88.2 191.71 98.43 117.81 220.6 117.81C342.77 117.81 355.25 191.71 355.25 262.34Z" fill="#DFC8F6"/>
<path d="M249.39 332.8C237.09 332.74 223.29 333.37 208.31 335.2C196.86 336.6 186.3 338.51 176.7 340.66" stroke="#34302D" stroke-width="3" stroke-miterlimit="10" stroke-linecap="round"/>
<path d="M174.44 323.203C174.864 313.039 164.866 304.368 152.108 303.835C139.351 303.303 128.665 311.111 128.24 321.275C127.816 331.439 137.814 340.111 150.572 340.643C163.33 341.176 174.016 333.367 174.44 323.203Z" fill="#BB5696"/>
<path d="M300.718 321.533C301.142 311.369 291.144 302.698 278.386 302.165C265.628 301.633 254.942 309.441 254.518 319.605C254.094 329.769 264.092 338.441 276.85 338.973C289.607 339.506 300.293 331.698 300.718 321.533Z" fill="#BB5696"/>
<path d="M210.64 313.4C197.87 313.4 187.52 305.15 187.52 294.98C187.52 284.81 197.87 276.56 210.64 276.56" fill="#BB5696"/>
<path d="M394.72 274.27C411.741 274.27 425.54 260.471 425.54 243.45C425.54 226.429 411.741 212.63 394.72 212.63C377.699 212.63 363.9 226.429 363.9 243.45C363.9 260.471 377.699 274.27 394.72 274.27Z" fill="#3B5353"/>
<path d="M391.91 310.96C408.931 310.96 422.73 297.161 422.73 280.14C422.73 263.119 408.931 249.32 391.91 249.32C374.889 249.32 361.09 263.119 361.09 280.14C361.09 297.161 374.889 310.96 391.91 310.96Z" fill="#3B5353"/>
<path d="M121.892 231.795C128.761 217.498 118.618 198.36 99.2381 189.049C79.858 179.739 58.5793 183.782 51.7108 198.079C44.8422 212.377 54.9848 231.514 74.3649 240.825C93.7449 250.135 115.024 246.092 121.892 231.795Z" fill="#3B5353"/>
<path d="M128.225 200.889C135.094 186.592 124.951 167.454 105.571 158.144C86.1908 148.834 64.9121 152.876 58.0436 167.174C51.175 181.471 61.3176 200.609 80.6976 209.919C100.078 219.23 121.356 215.187 128.225 200.889Z" fill="#3B5353"/>
<path d="M130.21 217.02C147.231 217.02 161.03 203.221 161.03 186.2C161.03 169.179 147.231 155.38 130.21 155.38C113.189 155.38 99.39 169.179 99.39 186.2C99.39 203.221 113.189 217.02 130.21 217.02Z" fill="#3B5353"/>
<path d="M320.91 213.82C337.931 213.82 351.73 200.021 351.73 183C351.73 165.979 337.931 152.18 320.91 152.18C303.889 152.18 290.09 165.979 290.09 183C290.09 200.021 303.889 213.82 320.91 213.82Z" fill="#3B5353"/>
<path d="M277.61 198.24C294.631 198.24 308.43 184.441 308.43 167.42C308.43 150.399 294.631 136.6 277.61 136.6C260.589 136.6 246.79 150.399 246.79 167.42C246.79 184.441 260.589 198.24 277.61 198.24Z" fill="#3B5353"/>
<path d="M363.9 239C380.921 239 394.72 225.201 394.72 208.18C394.72 191.159 380.921 177.36 363.9 177.36C346.879 177.36 333.08 191.159 333.08 208.18C333.08 225.201 346.879 239 363.9 239Z" fill="#3B5353"/>
<path d="M363.9 219.56C380.921 219.56 394.72 205.761 394.72 188.74C394.72 171.719 380.921 157.92 363.9 157.92C346.879 157.92 333.08 171.719 333.08 188.74C333.08 205.761 346.879 219.56 363.9 219.56Z" fill="#3B5353"/>
<path d="M68.18 284.66C85.2014 284.66 99 270.861 99 253.84C99 236.819 85.2014 223.02 68.18 223.02C51.1586 223.02 37.36 236.819 37.36 253.84C37.36 270.861 51.1586 284.66 68.18 284.66Z" fill="#3B5353"/>
<path d="M66.62 305.02C80.3332 305.02 91.45 293.903 91.45 280.19C91.45 266.477 80.3332 255.36 66.62 255.36C52.9067 255.36 41.79 266.477 41.79 280.19C41.79 293.903 52.9067 305.02 66.62 305.02Z" fill="#3B5353"/>
<path d="M331.28 235.18C336.71 225.86 345.33 219.61 355.37 218.96C373.46 217.79 389.32 235.25 390.79 257.96C392.26 280.67 378.78 300.03 360.69 301.2C357.15 301.43 353.7 300.95 350.42 299.85" fill="#DFC8F6"/>
<path d="M345.02 247.44C353.13 241.93 364.18 244.04 369.69 252.16C375.2 260.28 373.09 271.32 364.97 276.83" stroke="#34302D" stroke-width="3" stroke-miterlimit="10" stroke-linecap="round"/>
<path d="M224.55 211.547C348.289 211.547 448.6 192.372 448.6 168.717C448.6 145.063 348.289 125.887 224.55 125.887C100.811 125.887 0.5 145.063 0.5 168.717C0.5 192.372 100.811 211.547 224.55 211.547Z" fill="#877D79"/>
<path d="M89.02 178.148C72.38 175.048 59.61 171.378 51.95 167.338" stroke="#34302D" stroke-width="3" stroke-miterlimit="10" stroke-linecap="round"/>
<path d="M361.25 177.927C354.8 179.147 347.75 180.287 340.17 181.327" stroke="#34302D" stroke-width="3" stroke-miterlimit="10" stroke-linecap="round"/>
<path d="M358.97 140.998C366.2 142.318 372.71 143.748 378.42 145.268" stroke="#34302D" stroke-width="3" stroke-miterlimit="10" stroke-linecap="round"/>
<path d="M291.13 154.807C294.01 153.938 296.74 153.048 299.32 152.167C308.34 149.067 312.13 139.397 307.31 131.837C284.25 95.7575 261.19 59.6675 238.14 23.5875C232.1 14.1375 217.01 14.1375 210.97 23.5875L141.79 131.847C136.98 139.377 140.72 149.047 149.72 152.147C159.74 155.607 172 159.037 186.16 161.427" fill="#877D79"/>
<path d="M291.13 154.808C294.01 153.938 296.74 153.048 299.32 152.168C305.22 150.138 308.89 145.298 309.36 140.078" stroke="#34302D" stroke-width="3" stroke-miterlimit="10" stroke-linecap="round"/>
<path d="M139.8 140.708C140.5 145.678 144.07 150.208 149.71 152.148C159.73 155.608 171.99 159.038 186.15 161.428" stroke="#34302D" stroke-width="3" stroke-miterlimit="10" stroke-linecap="round"/>
<path d="M196.64 216.61H134.59C131.083 216.61 128.24 219.453 128.24 222.96V227.55C128.24 231.057 131.083 233.9 134.59 233.9H196.64C200.147 233.9 202.99 231.057 202.99 227.55V222.96C202.99 219.453 200.147 216.61 196.64 216.61Z" fill="#34302D"/>
<path d="M289.773 213.495L227.743 215.054C224.237 215.142 221.466 218.056 221.554 221.561L221.67 226.15C221.758 229.656 224.671 232.427 228.177 232.338L290.208 230.779C293.713 230.691 296.484 227.777 296.396 224.272L296.281 219.683C296.192 216.177 293.279 213.406 289.773 213.495Z" fill="#34302D"/>
<path d="M168.17 294.81C177.465 294.81 185 279.265 185 260.09C185 240.915 177.465 225.37 168.17 225.37C158.875 225.37 151.34 240.915 151.34 260.09C151.34 279.265 158.875 294.81 168.17 294.81Z" fill="#34302D"/>
<path d="M252.46 294.81C261.755 294.81 269.29 279.265 269.29 260.09C269.29 240.915 261.755 225.37 252.46 225.37C243.165 225.37 235.63 240.915 235.63 260.09C235.63 279.265 243.165 294.81 252.46 294.81Z" fill="#34302D"/>
<path d="M245.89 297.59C248.15 298.18 255.66 299.82 264.07 296.2C272.54 292.55 276.5 285.9 277.61 283.85" stroke="#34302D" stroke-width="3" stroke-miterlimit="10" stroke-linecap="round"/>
<path d="M176.89 297.59C174.63 298.18 167.12 299.82 158.71 296.2C150.24 292.55 146.28 285.9 145.17 283.85" stroke="#34302D" stroke-width="3" stroke-miterlimit="10" stroke-linecap="round"/>
<path d="M237.08 446.68C241.708 446.442 245.314 443.415 245.134 439.918C244.954 436.421 241.057 433.779 236.43 434.017C231.802 434.254 228.196 437.282 228.376 440.779C228.556 444.276 232.453 446.918 237.08 446.68Z" fill="#DFC8F6" stroke="#34302D" stroke-miterlimit="10"/>
<path d="M252.852 448.669C257.479 448.431 261.085 445.404 260.905 441.907C260.726 438.41 256.829 435.768 252.201 436.005C247.574 436.243 243.968 439.27 244.147 442.767C244.327 446.264 248.224 448.906 252.852 448.669Z" fill="#DFC8F6" stroke="#34302D" stroke-miterlimit="10"/>
<path d="M268.728 445.888C273.356 445.651 276.961 442.623 276.782 439.126C276.602 435.629 272.705 432.987 268.078 433.225C263.45 433.463 259.844 436.49 260.024 439.987C260.204 443.484 264.1 446.126 268.728 445.888Z" fill="#DFC8F6" stroke="#34302D" stroke-miterlimit="10"/>
<path d="M245.89 379L222.71 431.44C221.95 433.16 222.88 435.16 224.68 435.69C232.21 437.9 242.22 439.88 254.02 439.7C264.49 439.54 273.45 437.73 280.42 435.69C282.23 435.16 283.16 433.17 282.4 431.44L259.22 379C256.48 372.81 248.64 372.81 245.9 379H245.89Z" fill="#EFEAE6" stroke="#34302D" stroke-miterlimit="10"/>
<path d="M280.89 428.04C280.74 428.11 280.58 428.17 280.41 428.22C273.45 430.26 264.48 432.07 254.01 432.23C242.21 432.41 232.2 430.42 224.67 428.22C224.51 428.17 224.35 428.11 224.2 428.04L245.88 379C248.62 372.81 256.46 372.81 259.2 379L280.88 428.04H280.89Z" fill="#667E80"/>
<path d="M224.21 428.04L245.89 379" stroke="#34302D" stroke-miterlimit="10" stroke-linecap="round"/>
</g>
<defs>
<clipPath id="clip0_1_54">
<rect width="448.1" height="457.41" fill="white"/>
</clipPath>
</defs>
</svg>
