<svg width="107" height="107" viewBox="0 0 107 107" fill="none" xmlns="http://www.w3.org/2000/svg">
<g clip-path="url(#clip0_1_259)">
<path d="M100.848 76.995L86.155 78.8175L88.315 93.465L74.0425 89.505L70.42 103.868L58.7425 94.755L49.915 106.65L42.625 93.7575L29.905 101.348L28.0825 86.655L13.435 88.815L17.395 74.5425L3.0325 70.92L12.145 59.2425L0.25 50.415L13.1425 43.125L5.5525 30.405L20.245 28.5825L18.085 13.935L32.3575 17.895L35.98 3.5325L47.6575 12.645L56.485 0.75L63.775 13.6425L76.495 6.0525L78.3175 20.745L92.965 18.585L89.005 32.8575L103.368 36.48L94.255 48.1575L106.15 56.985L93.2575 64.275L100.848 76.995Z" fill="white"/>
<path d="M95.62 77.3175L82.2775 78.9675L84.2425 92.2725L71.2825 88.6725L67.9976 101.707L57.4 93.4425L49.3825 104.235L42.7675 92.535L31.2175 99.4275L29.5675 86.085L16.2701 88.05L19.87 75.0975L6.82755 71.805L15.1 61.2075L4.30005 53.19L16 46.575L9.11505 35.0325L22.4501 33.375L20.4925 20.0775L33.445 23.6775L36.73 10.635L47.335 18.9075L55.345 8.10748L61.9675 19.815L73.51 12.9225L75.16 26.265L88.465 24.3L84.8651 37.2525L97.9 40.545L89.635 51.1425L100.428 59.1525L88.7275 65.775L95.62 77.3175Z" fill="#060914"/>
<path d="M44.4639 65.5528C47.5662 65.5257 50.0227 58.7984 49.9505 50.5268C49.8783 42.2553 47.3048 35.5719 44.2025 35.5989C41.1001 35.626 38.6437 42.3533 38.7159 50.6249C38.7881 58.8964 41.3616 65.5799 44.4639 65.5528Z" fill="white"/>
<path d="M64.9746 64.5864C68.077 64.5593 70.5334 57.8319 70.4612 49.5604C70.389 41.2889 67.8156 34.6054 64.7132 34.6325C61.6109 34.6596 59.1545 41.3869 59.2266 49.6584C59.2988 57.93 61.8723 64.6134 64.9746 64.5864Z" fill="white"/>
</g>
<defs>
<clipPath id="clip0_1_259">
<rect width="105.9" height="105.9" fill="white" transform="translate(0.25 0.75)"/>
</clipPath>
</defs>
</svg>
